%TF.GenerationSoftware,KiCad,Pcbnew,8.0.4*%
%TF.CreationDate,2024-11-07T17:56:33+01:00*%
%TF.ProjectId,stm32microcontroller,73746d33-326d-4696-9372-6f636f6e7472,rev?*%
%TF.SameCoordinates,Original*%
%TF.FileFunction,Legend,Top*%
%TF.FilePolarity,Positive*%
%FSLAX46Y46*%
G04 Gerber Fmt 4.6, Leading zero omitted, Abs format (unit mm)*
G04 Created by KiCad (PCBNEW 8.0.4) date 2024-11-07 17:56:33*
%MOMM*%
%LPD*%
G01*
G04 APERTURE LIST*
%ADD10C,0.100000*%
%ADD11C,0.150000*%
%ADD12C,0.120000*%
G04 APERTURE END LIST*
D10*
X54708646Y-70372419D02*
X55327693Y-70372419D01*
X55327693Y-70372419D02*
X54994360Y-70753371D01*
X54994360Y-70753371D02*
X55137217Y-70753371D01*
X55137217Y-70753371D02*
X55232455Y-70800990D01*
X55232455Y-70800990D02*
X55280074Y-70848609D01*
X55280074Y-70848609D02*
X55327693Y-70943847D01*
X55327693Y-70943847D02*
X55327693Y-71181942D01*
X55327693Y-71181942D02*
X55280074Y-71277180D01*
X55280074Y-71277180D02*
X55232455Y-71324800D01*
X55232455Y-71324800D02*
X55137217Y-71372419D01*
X55137217Y-71372419D02*
X54851503Y-71372419D01*
X54851503Y-71372419D02*
X54756265Y-71324800D01*
X54756265Y-71324800D02*
X54708646Y-71277180D01*
X55613408Y-70372419D02*
X55946741Y-71372419D01*
X55946741Y-71372419D02*
X56280074Y-70372419D01*
X56518170Y-70372419D02*
X57137217Y-70372419D01*
X57137217Y-70372419D02*
X56803884Y-70753371D01*
X56803884Y-70753371D02*
X56946741Y-70753371D01*
X56946741Y-70753371D02*
X57041979Y-70800990D01*
X57041979Y-70800990D02*
X57089598Y-70848609D01*
X57089598Y-70848609D02*
X57137217Y-70943847D01*
X57137217Y-70943847D02*
X57137217Y-71181942D01*
X57137217Y-71181942D02*
X57089598Y-71277180D01*
X57089598Y-71277180D02*
X57041979Y-71324800D01*
X57041979Y-71324800D02*
X56946741Y-71372419D01*
X56946741Y-71372419D02*
X56661027Y-71372419D01*
X56661027Y-71372419D02*
X56565789Y-71324800D01*
X56565789Y-71324800D02*
X56518170Y-71277180D01*
X55327693Y-73090038D02*
X55232455Y-73042419D01*
X55232455Y-73042419D02*
X55089598Y-73042419D01*
X55089598Y-73042419D02*
X54946741Y-73090038D01*
X54946741Y-73090038D02*
X54851503Y-73185276D01*
X54851503Y-73185276D02*
X54803884Y-73280514D01*
X54803884Y-73280514D02*
X54756265Y-73470990D01*
X54756265Y-73470990D02*
X54756265Y-73613847D01*
X54756265Y-73613847D02*
X54803884Y-73804323D01*
X54803884Y-73804323D02*
X54851503Y-73899561D01*
X54851503Y-73899561D02*
X54946741Y-73994800D01*
X54946741Y-73994800D02*
X55089598Y-74042419D01*
X55089598Y-74042419D02*
X55184836Y-74042419D01*
X55184836Y-74042419D02*
X55327693Y-73994800D01*
X55327693Y-73994800D02*
X55375312Y-73947180D01*
X55375312Y-73947180D02*
X55375312Y-73613847D01*
X55375312Y-73613847D02*
X55184836Y-73613847D01*
X55803884Y-74042419D02*
X55803884Y-73042419D01*
X55803884Y-73042419D02*
X56375312Y-74042419D01*
X56375312Y-74042419D02*
X56375312Y-73042419D01*
X56851503Y-74042419D02*
X56851503Y-73042419D01*
X56851503Y-73042419D02*
X57089598Y-73042419D01*
X57089598Y-73042419D02*
X57232455Y-73090038D01*
X57232455Y-73090038D02*
X57327693Y-73185276D01*
X57327693Y-73185276D02*
X57375312Y-73280514D01*
X57375312Y-73280514D02*
X57422931Y-73470990D01*
X57422931Y-73470990D02*
X57422931Y-73613847D01*
X57422931Y-73613847D02*
X57375312Y-73804323D01*
X57375312Y-73804323D02*
X57327693Y-73899561D01*
X57327693Y-73899561D02*
X57232455Y-73994800D01*
X57232455Y-73994800D02*
X57089598Y-74042419D01*
X57089598Y-74042419D02*
X56851503Y-74042419D01*
X56756265Y-55476760D02*
X57232455Y-55476760D01*
X56661027Y-55762475D02*
X56994360Y-54762475D01*
X56994360Y-54762475D02*
X57327693Y-55762475D01*
X57661027Y-55762475D02*
X57661027Y-55095808D01*
X57661027Y-55286284D02*
X57708646Y-55191046D01*
X57708646Y-55191046D02*
X57756265Y-55143427D01*
X57756265Y-55143427D02*
X57851503Y-55095808D01*
X57851503Y-55095808D02*
X57946741Y-55095808D01*
X58184837Y-55095808D02*
X58422932Y-55762475D01*
X58422932Y-55762475D02*
X58661027Y-55095808D01*
X59041980Y-55762475D02*
X59041980Y-55095808D01*
X59041980Y-54762475D02*
X58994361Y-54810094D01*
X58994361Y-54810094D02*
X59041980Y-54857713D01*
X59041980Y-54857713D02*
X59089599Y-54810094D01*
X59089599Y-54810094D02*
X59041980Y-54762475D01*
X59041980Y-54762475D02*
X59041980Y-54857713D01*
X59946741Y-55762475D02*
X59946741Y-54762475D01*
X59946741Y-55714856D02*
X59851503Y-55762475D01*
X59851503Y-55762475D02*
X59661027Y-55762475D01*
X59661027Y-55762475D02*
X59565789Y-55714856D01*
X59565789Y-55714856D02*
X59518170Y-55667236D01*
X59518170Y-55667236D02*
X59470551Y-55571998D01*
X59470551Y-55571998D02*
X59470551Y-55286284D01*
X59470551Y-55286284D02*
X59518170Y-55191046D01*
X59518170Y-55191046D02*
X59565789Y-55143427D01*
X59565789Y-55143427D02*
X59661027Y-55095808D01*
X59661027Y-55095808D02*
X59851503Y-55095808D01*
X59851503Y-55095808D02*
X59946741Y-55143427D01*
X60375313Y-55714856D02*
X60470551Y-55762475D01*
X60470551Y-55762475D02*
X60661027Y-55762475D01*
X60661027Y-55762475D02*
X60756265Y-55714856D01*
X60756265Y-55714856D02*
X60803884Y-55619617D01*
X60803884Y-55619617D02*
X60803884Y-55571998D01*
X60803884Y-55571998D02*
X60756265Y-55476760D01*
X60756265Y-55476760D02*
X60661027Y-55429141D01*
X60661027Y-55429141D02*
X60518170Y-55429141D01*
X60518170Y-55429141D02*
X60422932Y-55381522D01*
X60422932Y-55381522D02*
X60375313Y-55286284D01*
X60375313Y-55286284D02*
X60375313Y-55238665D01*
X60375313Y-55238665D02*
X60422932Y-55143427D01*
X60422932Y-55143427D02*
X60518170Y-55095808D01*
X60518170Y-55095808D02*
X60661027Y-55095808D01*
X60661027Y-55095808D02*
X60756265Y-55143427D01*
X62422932Y-55762475D02*
X62422932Y-54762475D01*
X62422932Y-55714856D02*
X62327694Y-55762475D01*
X62327694Y-55762475D02*
X62137218Y-55762475D01*
X62137218Y-55762475D02*
X62041980Y-55714856D01*
X62041980Y-55714856D02*
X61994361Y-55667236D01*
X61994361Y-55667236D02*
X61946742Y-55571998D01*
X61946742Y-55571998D02*
X61946742Y-55286284D01*
X61946742Y-55286284D02*
X61994361Y-55191046D01*
X61994361Y-55191046D02*
X62041980Y-55143427D01*
X62041980Y-55143427D02*
X62137218Y-55095808D01*
X62137218Y-55095808D02*
X62327694Y-55095808D01*
X62327694Y-55095808D02*
X62422932Y-55143427D01*
X63280075Y-55714856D02*
X63184837Y-55762475D01*
X63184837Y-55762475D02*
X62994361Y-55762475D01*
X62994361Y-55762475D02*
X62899123Y-55714856D01*
X62899123Y-55714856D02*
X62851504Y-55619617D01*
X62851504Y-55619617D02*
X62851504Y-55238665D01*
X62851504Y-55238665D02*
X62899123Y-55143427D01*
X62899123Y-55143427D02*
X62994361Y-55095808D01*
X62994361Y-55095808D02*
X63184837Y-55095808D01*
X63184837Y-55095808D02*
X63280075Y-55143427D01*
X63280075Y-55143427D02*
X63327694Y-55238665D01*
X63327694Y-55238665D02*
X63327694Y-55333903D01*
X63327694Y-55333903D02*
X62851504Y-55429141D01*
X63756266Y-55762475D02*
X63756266Y-55095808D01*
X63756266Y-55191046D02*
X63803885Y-55143427D01*
X63803885Y-55143427D02*
X63899123Y-55095808D01*
X63899123Y-55095808D02*
X64041980Y-55095808D01*
X64041980Y-55095808D02*
X64137218Y-55143427D01*
X64137218Y-55143427D02*
X64184837Y-55238665D01*
X64184837Y-55238665D02*
X64184837Y-55762475D01*
X64184837Y-55238665D02*
X64232456Y-55143427D01*
X64232456Y-55143427D02*
X64327694Y-55095808D01*
X64327694Y-55095808D02*
X64470551Y-55095808D01*
X64470551Y-55095808D02*
X64565790Y-55143427D01*
X64565790Y-55143427D02*
X64613409Y-55238665D01*
X64613409Y-55238665D02*
X64613409Y-55762475D01*
X65232456Y-55762475D02*
X65137218Y-55714856D01*
X65137218Y-55714856D02*
X65089599Y-55667236D01*
X65089599Y-55667236D02*
X65041980Y-55571998D01*
X65041980Y-55571998D02*
X65041980Y-55286284D01*
X65041980Y-55286284D02*
X65089599Y-55191046D01*
X65089599Y-55191046D02*
X65137218Y-55143427D01*
X65137218Y-55143427D02*
X65232456Y-55095808D01*
X65232456Y-55095808D02*
X65375313Y-55095808D01*
X65375313Y-55095808D02*
X65470551Y-55143427D01*
X65470551Y-55143427D02*
X65518170Y-55191046D01*
X65518170Y-55191046D02*
X65565789Y-55286284D01*
X65565789Y-55286284D02*
X65565789Y-55571998D01*
X65565789Y-55571998D02*
X65518170Y-55667236D01*
X65518170Y-55667236D02*
X65470551Y-55714856D01*
X65470551Y-55714856D02*
X65375313Y-55762475D01*
X65375313Y-55762475D02*
X65232456Y-55762475D01*
X65994361Y-55762475D02*
X65994361Y-54762475D01*
X65994361Y-55143427D02*
X66089599Y-55095808D01*
X66089599Y-55095808D02*
X66280075Y-55095808D01*
X66280075Y-55095808D02*
X66375313Y-55143427D01*
X66375313Y-55143427D02*
X66422932Y-55191046D01*
X66422932Y-55191046D02*
X66470551Y-55286284D01*
X66470551Y-55286284D02*
X66470551Y-55571998D01*
X66470551Y-55571998D02*
X66422932Y-55667236D01*
X66422932Y-55667236D02*
X66375313Y-55714856D01*
X66375313Y-55714856D02*
X66280075Y-55762475D01*
X66280075Y-55762475D02*
X66089599Y-55762475D01*
X66089599Y-55762475D02*
X65994361Y-55714856D01*
X67041980Y-55762475D02*
X66946742Y-55714856D01*
X66946742Y-55714856D02*
X66899123Y-55667236D01*
X66899123Y-55667236D02*
X66851504Y-55571998D01*
X66851504Y-55571998D02*
X66851504Y-55286284D01*
X66851504Y-55286284D02*
X66899123Y-55191046D01*
X66899123Y-55191046D02*
X66946742Y-55143427D01*
X66946742Y-55143427D02*
X67041980Y-55095808D01*
X67041980Y-55095808D02*
X67184837Y-55095808D01*
X67184837Y-55095808D02*
X67280075Y-55143427D01*
X67280075Y-55143427D02*
X67327694Y-55191046D01*
X67327694Y-55191046D02*
X67375313Y-55286284D01*
X67375313Y-55286284D02*
X67375313Y-55571998D01*
X67375313Y-55571998D02*
X67327694Y-55667236D01*
X67327694Y-55667236D02*
X67280075Y-55714856D01*
X67280075Y-55714856D02*
X67184837Y-55762475D01*
X67184837Y-55762475D02*
X67041980Y-55762475D01*
X68232456Y-55762475D02*
X68232456Y-55238665D01*
X68232456Y-55238665D02*
X68184837Y-55143427D01*
X68184837Y-55143427D02*
X68089599Y-55095808D01*
X68089599Y-55095808D02*
X67899123Y-55095808D01*
X67899123Y-55095808D02*
X67803885Y-55143427D01*
X68232456Y-55714856D02*
X68137218Y-55762475D01*
X68137218Y-55762475D02*
X67899123Y-55762475D01*
X67899123Y-55762475D02*
X67803885Y-55714856D01*
X67803885Y-55714856D02*
X67756266Y-55619617D01*
X67756266Y-55619617D02*
X67756266Y-55524379D01*
X67756266Y-55524379D02*
X67803885Y-55429141D01*
X67803885Y-55429141D02*
X67899123Y-55381522D01*
X67899123Y-55381522D02*
X68137218Y-55381522D01*
X68137218Y-55381522D02*
X68232456Y-55333903D01*
X68708647Y-55762475D02*
X68708647Y-55095808D01*
X68708647Y-55286284D02*
X68756266Y-55191046D01*
X68756266Y-55191046D02*
X68803885Y-55143427D01*
X68803885Y-55143427D02*
X68899123Y-55095808D01*
X68899123Y-55095808D02*
X68994361Y-55095808D01*
X69756266Y-55762475D02*
X69756266Y-54762475D01*
X69756266Y-55714856D02*
X69661028Y-55762475D01*
X69661028Y-55762475D02*
X69470552Y-55762475D01*
X69470552Y-55762475D02*
X69375314Y-55714856D01*
X69375314Y-55714856D02*
X69327695Y-55667236D01*
X69327695Y-55667236D02*
X69280076Y-55571998D01*
X69280076Y-55571998D02*
X69280076Y-55286284D01*
X69280076Y-55286284D02*
X69327695Y-55191046D01*
X69327695Y-55191046D02*
X69375314Y-55143427D01*
X69375314Y-55143427D02*
X69470552Y-55095808D01*
X69470552Y-55095808D02*
X69661028Y-55095808D01*
X69661028Y-55095808D02*
X69756266Y-55143427D01*
X70994362Y-55667236D02*
X71041981Y-55714856D01*
X71041981Y-55714856D02*
X70994362Y-55762475D01*
X70994362Y-55762475D02*
X70946743Y-55714856D01*
X70946743Y-55714856D02*
X70994362Y-55667236D01*
X70994362Y-55667236D02*
X70994362Y-55762475D01*
X70994362Y-55143427D02*
X71041981Y-55191046D01*
X71041981Y-55191046D02*
X70994362Y-55238665D01*
X70994362Y-55238665D02*
X70946743Y-55191046D01*
X70946743Y-55191046D02*
X70994362Y-55143427D01*
X70994362Y-55143427D02*
X70994362Y-55238665D01*
X71375314Y-56143427D02*
X71422933Y-56095808D01*
X71422933Y-56095808D02*
X71518171Y-55952951D01*
X71518171Y-55952951D02*
X71565790Y-55857713D01*
X71565790Y-55857713D02*
X71613409Y-55714856D01*
X71613409Y-55714856D02*
X71661028Y-55476760D01*
X71661028Y-55476760D02*
X71661028Y-55286284D01*
X71661028Y-55286284D02*
X71613409Y-55048189D01*
X71613409Y-55048189D02*
X71565790Y-54905332D01*
X71565790Y-54905332D02*
X71518171Y-54810094D01*
X71518171Y-54810094D02*
X71422933Y-54667236D01*
X71422933Y-54667236D02*
X71375314Y-54619617D01*
D11*
X79761905Y-69954819D02*
X79761905Y-68954819D01*
X79761905Y-68954819D02*
X80000000Y-68954819D01*
X80000000Y-68954819D02*
X80142857Y-69002438D01*
X80142857Y-69002438D02*
X80238095Y-69097676D01*
X80238095Y-69097676D02*
X80285714Y-69192914D01*
X80285714Y-69192914D02*
X80333333Y-69383390D01*
X80333333Y-69383390D02*
X80333333Y-69526247D01*
X80333333Y-69526247D02*
X80285714Y-69716723D01*
X80285714Y-69716723D02*
X80238095Y-69811961D01*
X80238095Y-69811961D02*
X80142857Y-69907200D01*
X80142857Y-69907200D02*
X80000000Y-69954819D01*
X80000000Y-69954819D02*
X79761905Y-69954819D01*
X80761905Y-69431009D02*
X81095238Y-69431009D01*
X81238095Y-69954819D02*
X80761905Y-69954819D01*
X80761905Y-69954819D02*
X80761905Y-68954819D01*
X80761905Y-68954819D02*
X81238095Y-68954819D01*
X82000000Y-69431009D02*
X82142857Y-69478628D01*
X82142857Y-69478628D02*
X82190476Y-69526247D01*
X82190476Y-69526247D02*
X82238095Y-69621485D01*
X82238095Y-69621485D02*
X82238095Y-69764342D01*
X82238095Y-69764342D02*
X82190476Y-69859580D01*
X82190476Y-69859580D02*
X82142857Y-69907200D01*
X82142857Y-69907200D02*
X82047619Y-69954819D01*
X82047619Y-69954819D02*
X81666667Y-69954819D01*
X81666667Y-69954819D02*
X81666667Y-68954819D01*
X81666667Y-68954819D02*
X82000000Y-68954819D01*
X82000000Y-68954819D02*
X82095238Y-69002438D01*
X82095238Y-69002438D02*
X82142857Y-69050057D01*
X82142857Y-69050057D02*
X82190476Y-69145295D01*
X82190476Y-69145295D02*
X82190476Y-69240533D01*
X82190476Y-69240533D02*
X82142857Y-69335771D01*
X82142857Y-69335771D02*
X82095238Y-69383390D01*
X82095238Y-69383390D02*
X82000000Y-69431009D01*
X82000000Y-69431009D02*
X81666667Y-69431009D01*
X82666667Y-68954819D02*
X82666667Y-69764342D01*
X82666667Y-69764342D02*
X82714286Y-69859580D01*
X82714286Y-69859580D02*
X82761905Y-69907200D01*
X82761905Y-69907200D02*
X82857143Y-69954819D01*
X82857143Y-69954819D02*
X83047619Y-69954819D01*
X83047619Y-69954819D02*
X83142857Y-69907200D01*
X83142857Y-69907200D02*
X83190476Y-69859580D01*
X83190476Y-69859580D02*
X83238095Y-69764342D01*
X83238095Y-69764342D02*
X83238095Y-68954819D01*
X84238095Y-69002438D02*
X84142857Y-68954819D01*
X84142857Y-68954819D02*
X84000000Y-68954819D01*
X84000000Y-68954819D02*
X83857143Y-69002438D01*
X83857143Y-69002438D02*
X83761905Y-69097676D01*
X83761905Y-69097676D02*
X83714286Y-69192914D01*
X83714286Y-69192914D02*
X83666667Y-69383390D01*
X83666667Y-69383390D02*
X83666667Y-69526247D01*
X83666667Y-69526247D02*
X83714286Y-69716723D01*
X83714286Y-69716723D02*
X83761905Y-69811961D01*
X83761905Y-69811961D02*
X83857143Y-69907200D01*
X83857143Y-69907200D02*
X84000000Y-69954819D01*
X84000000Y-69954819D02*
X84095238Y-69954819D01*
X84095238Y-69954819D02*
X84238095Y-69907200D01*
X84238095Y-69907200D02*
X84285714Y-69859580D01*
X84285714Y-69859580D02*
X84285714Y-69526247D01*
X84285714Y-69526247D02*
X84095238Y-69526247D01*
X86333333Y-75954819D02*
X86000000Y-75478628D01*
X85761905Y-75954819D02*
X85761905Y-74954819D01*
X85761905Y-74954819D02*
X86142857Y-74954819D01*
X86142857Y-74954819D02*
X86238095Y-75002438D01*
X86238095Y-75002438D02*
X86285714Y-75050057D01*
X86285714Y-75050057D02*
X86333333Y-75145295D01*
X86333333Y-75145295D02*
X86333333Y-75288152D01*
X86333333Y-75288152D02*
X86285714Y-75383390D01*
X86285714Y-75383390D02*
X86238095Y-75431009D01*
X86238095Y-75431009D02*
X86142857Y-75478628D01*
X86142857Y-75478628D02*
X85761905Y-75478628D01*
X87238095Y-74954819D02*
X86761905Y-74954819D01*
X86761905Y-74954819D02*
X86714286Y-75431009D01*
X86714286Y-75431009D02*
X86761905Y-75383390D01*
X86761905Y-75383390D02*
X86857143Y-75335771D01*
X86857143Y-75335771D02*
X87095238Y-75335771D01*
X87095238Y-75335771D02*
X87190476Y-75383390D01*
X87190476Y-75383390D02*
X87238095Y-75431009D01*
X87238095Y-75431009D02*
X87285714Y-75526247D01*
X87285714Y-75526247D02*
X87285714Y-75764342D01*
X87285714Y-75764342D02*
X87238095Y-75859580D01*
X87238095Y-75859580D02*
X87190476Y-75907200D01*
X87190476Y-75907200D02*
X87095238Y-75954819D01*
X87095238Y-75954819D02*
X86857143Y-75954819D01*
X86857143Y-75954819D02*
X86761905Y-75907200D01*
X86761905Y-75907200D02*
X86714286Y-75859580D01*
X86333333Y-71954819D02*
X86000000Y-71478628D01*
X85761905Y-71954819D02*
X85761905Y-70954819D01*
X85761905Y-70954819D02*
X86142857Y-70954819D01*
X86142857Y-70954819D02*
X86238095Y-71002438D01*
X86238095Y-71002438D02*
X86285714Y-71050057D01*
X86285714Y-71050057D02*
X86333333Y-71145295D01*
X86333333Y-71145295D02*
X86333333Y-71288152D01*
X86333333Y-71288152D02*
X86285714Y-71383390D01*
X86285714Y-71383390D02*
X86238095Y-71431009D01*
X86238095Y-71431009D02*
X86142857Y-71478628D01*
X86142857Y-71478628D02*
X85761905Y-71478628D01*
X87190476Y-70954819D02*
X87000000Y-70954819D01*
X87000000Y-70954819D02*
X86904762Y-71002438D01*
X86904762Y-71002438D02*
X86857143Y-71050057D01*
X86857143Y-71050057D02*
X86761905Y-71192914D01*
X86761905Y-71192914D02*
X86714286Y-71383390D01*
X86714286Y-71383390D02*
X86714286Y-71764342D01*
X86714286Y-71764342D02*
X86761905Y-71859580D01*
X86761905Y-71859580D02*
X86809524Y-71907200D01*
X86809524Y-71907200D02*
X86904762Y-71954819D01*
X86904762Y-71954819D02*
X87095238Y-71954819D01*
X87095238Y-71954819D02*
X87190476Y-71907200D01*
X87190476Y-71907200D02*
X87238095Y-71859580D01*
X87238095Y-71859580D02*
X87285714Y-71764342D01*
X87285714Y-71764342D02*
X87285714Y-71526247D01*
X87285714Y-71526247D02*
X87238095Y-71431009D01*
X87238095Y-71431009D02*
X87190476Y-71383390D01*
X87190476Y-71383390D02*
X87095238Y-71335771D01*
X87095238Y-71335771D02*
X86904762Y-71335771D01*
X86904762Y-71335771D02*
X86809524Y-71383390D01*
X86809524Y-71383390D02*
X86761905Y-71431009D01*
X86761905Y-71431009D02*
X86714286Y-71526247D01*
X85761905Y-61954819D02*
X85761905Y-60954819D01*
X85761905Y-60954819D02*
X86000000Y-60954819D01*
X86000000Y-60954819D02*
X86142857Y-61002438D01*
X86142857Y-61002438D02*
X86238095Y-61097676D01*
X86238095Y-61097676D02*
X86285714Y-61192914D01*
X86285714Y-61192914D02*
X86333333Y-61383390D01*
X86333333Y-61383390D02*
X86333333Y-61526247D01*
X86333333Y-61526247D02*
X86285714Y-61716723D01*
X86285714Y-61716723D02*
X86238095Y-61811961D01*
X86238095Y-61811961D02*
X86142857Y-61907200D01*
X86142857Y-61907200D02*
X86000000Y-61954819D01*
X86000000Y-61954819D02*
X85761905Y-61954819D01*
X86666667Y-60954819D02*
X87333333Y-60954819D01*
X87333333Y-60954819D02*
X86904762Y-61954819D01*
X67666666Y-83931009D02*
X67333333Y-83931009D01*
X67333333Y-84454819D02*
X67333333Y-83454819D01*
X67333333Y-83454819D02*
X67809523Y-83454819D01*
X68523809Y-83931009D02*
X68666666Y-83978628D01*
X68666666Y-83978628D02*
X68714285Y-84026247D01*
X68714285Y-84026247D02*
X68761904Y-84121485D01*
X68761904Y-84121485D02*
X68761904Y-84264342D01*
X68761904Y-84264342D02*
X68714285Y-84359580D01*
X68714285Y-84359580D02*
X68666666Y-84407200D01*
X68666666Y-84407200D02*
X68571428Y-84454819D01*
X68571428Y-84454819D02*
X68190476Y-84454819D01*
X68190476Y-84454819D02*
X68190476Y-83454819D01*
X68190476Y-83454819D02*
X68523809Y-83454819D01*
X68523809Y-83454819D02*
X68619047Y-83502438D01*
X68619047Y-83502438D02*
X68666666Y-83550057D01*
X68666666Y-83550057D02*
X68714285Y-83645295D01*
X68714285Y-83645295D02*
X68714285Y-83740533D01*
X68714285Y-83740533D02*
X68666666Y-83835771D01*
X68666666Y-83835771D02*
X68619047Y-83883390D01*
X68619047Y-83883390D02*
X68523809Y-83931009D01*
X68523809Y-83931009D02*
X68190476Y-83931009D01*
X69714285Y-84454819D02*
X69142857Y-84454819D01*
X69428571Y-84454819D02*
X69428571Y-83454819D01*
X69428571Y-83454819D02*
X69333333Y-83597676D01*
X69333333Y-83597676D02*
X69238095Y-83692914D01*
X69238095Y-83692914D02*
X69142857Y-83740533D01*
X63833333Y-82377080D02*
X63785714Y-82424700D01*
X63785714Y-82424700D02*
X63642857Y-82472319D01*
X63642857Y-82472319D02*
X63547619Y-82472319D01*
X63547619Y-82472319D02*
X63404762Y-82424700D01*
X63404762Y-82424700D02*
X63309524Y-82329461D01*
X63309524Y-82329461D02*
X63261905Y-82234223D01*
X63261905Y-82234223D02*
X63214286Y-82043747D01*
X63214286Y-82043747D02*
X63214286Y-81900890D01*
X63214286Y-81900890D02*
X63261905Y-81710414D01*
X63261905Y-81710414D02*
X63309524Y-81615176D01*
X63309524Y-81615176D02*
X63404762Y-81519938D01*
X63404762Y-81519938D02*
X63547619Y-81472319D01*
X63547619Y-81472319D02*
X63642857Y-81472319D01*
X63642857Y-81472319D02*
X63785714Y-81519938D01*
X63785714Y-81519938D02*
X63833333Y-81567557D01*
X64166667Y-81472319D02*
X64833333Y-81472319D01*
X64833333Y-81472319D02*
X64404762Y-82472319D01*
X70333333Y-65859580D02*
X70285714Y-65907200D01*
X70285714Y-65907200D02*
X70142857Y-65954819D01*
X70142857Y-65954819D02*
X70047619Y-65954819D01*
X70047619Y-65954819D02*
X69904762Y-65907200D01*
X69904762Y-65907200D02*
X69809524Y-65811961D01*
X69809524Y-65811961D02*
X69761905Y-65716723D01*
X69761905Y-65716723D02*
X69714286Y-65526247D01*
X69714286Y-65526247D02*
X69714286Y-65383390D01*
X69714286Y-65383390D02*
X69761905Y-65192914D01*
X69761905Y-65192914D02*
X69809524Y-65097676D01*
X69809524Y-65097676D02*
X69904762Y-65002438D01*
X69904762Y-65002438D02*
X70047619Y-64954819D01*
X70047619Y-64954819D02*
X70142857Y-64954819D01*
X70142857Y-64954819D02*
X70285714Y-65002438D01*
X70285714Y-65002438D02*
X70333333Y-65050057D01*
X71238095Y-64954819D02*
X70761905Y-64954819D01*
X70761905Y-64954819D02*
X70714286Y-65431009D01*
X70714286Y-65431009D02*
X70761905Y-65383390D01*
X70761905Y-65383390D02*
X70857143Y-65335771D01*
X70857143Y-65335771D02*
X71095238Y-65335771D01*
X71095238Y-65335771D02*
X71190476Y-65383390D01*
X71190476Y-65383390D02*
X71238095Y-65431009D01*
X71238095Y-65431009D02*
X71285714Y-65526247D01*
X71285714Y-65526247D02*
X71285714Y-65764342D01*
X71285714Y-65764342D02*
X71238095Y-65859580D01*
X71238095Y-65859580D02*
X71190476Y-65907200D01*
X71190476Y-65907200D02*
X71095238Y-65954819D01*
X71095238Y-65954819D02*
X70857143Y-65954819D01*
X70857143Y-65954819D02*
X70761905Y-65907200D01*
X70761905Y-65907200D02*
X70714286Y-65859580D01*
X81049405Y-58954819D02*
X81049405Y-57954819D01*
X81049405Y-57954819D02*
X81287500Y-57954819D01*
X81287500Y-57954819D02*
X81430357Y-58002438D01*
X81430357Y-58002438D02*
X81525595Y-58097676D01*
X81525595Y-58097676D02*
X81573214Y-58192914D01*
X81573214Y-58192914D02*
X81620833Y-58383390D01*
X81620833Y-58383390D02*
X81620833Y-58526247D01*
X81620833Y-58526247D02*
X81573214Y-58716723D01*
X81573214Y-58716723D02*
X81525595Y-58811961D01*
X81525595Y-58811961D02*
X81430357Y-58907200D01*
X81430357Y-58907200D02*
X81287500Y-58954819D01*
X81287500Y-58954819D02*
X81049405Y-58954819D01*
X82477976Y-58288152D02*
X82477976Y-58954819D01*
X82239881Y-57907200D02*
X82001786Y-58621485D01*
X82001786Y-58621485D02*
X82620833Y-58621485D01*
X74608333Y-84359580D02*
X74560714Y-84407200D01*
X74560714Y-84407200D02*
X74417857Y-84454819D01*
X74417857Y-84454819D02*
X74322619Y-84454819D01*
X74322619Y-84454819D02*
X74179762Y-84407200D01*
X74179762Y-84407200D02*
X74084524Y-84311961D01*
X74084524Y-84311961D02*
X74036905Y-84216723D01*
X74036905Y-84216723D02*
X73989286Y-84026247D01*
X73989286Y-84026247D02*
X73989286Y-83883390D01*
X73989286Y-83883390D02*
X74036905Y-83692914D01*
X74036905Y-83692914D02*
X74084524Y-83597676D01*
X74084524Y-83597676D02*
X74179762Y-83502438D01*
X74179762Y-83502438D02*
X74322619Y-83454819D01*
X74322619Y-83454819D02*
X74417857Y-83454819D01*
X74417857Y-83454819D02*
X74560714Y-83502438D01*
X74560714Y-83502438D02*
X74608333Y-83550057D01*
X74941667Y-83454819D02*
X75560714Y-83454819D01*
X75560714Y-83454819D02*
X75227381Y-83835771D01*
X75227381Y-83835771D02*
X75370238Y-83835771D01*
X75370238Y-83835771D02*
X75465476Y-83883390D01*
X75465476Y-83883390D02*
X75513095Y-83931009D01*
X75513095Y-83931009D02*
X75560714Y-84026247D01*
X75560714Y-84026247D02*
X75560714Y-84264342D01*
X75560714Y-84264342D02*
X75513095Y-84359580D01*
X75513095Y-84359580D02*
X75465476Y-84407200D01*
X75465476Y-84407200D02*
X75370238Y-84454819D01*
X75370238Y-84454819D02*
X75084524Y-84454819D01*
X75084524Y-84454819D02*
X74989286Y-84407200D01*
X74989286Y-84407200D02*
X74941667Y-84359580D01*
X85761905Y-65954819D02*
X85761905Y-64954819D01*
X85761905Y-64954819D02*
X86000000Y-64954819D01*
X86000000Y-64954819D02*
X86142857Y-65002438D01*
X86142857Y-65002438D02*
X86238095Y-65097676D01*
X86238095Y-65097676D02*
X86285714Y-65192914D01*
X86285714Y-65192914D02*
X86333333Y-65383390D01*
X86333333Y-65383390D02*
X86333333Y-65526247D01*
X86333333Y-65526247D02*
X86285714Y-65716723D01*
X86285714Y-65716723D02*
X86238095Y-65811961D01*
X86238095Y-65811961D02*
X86142857Y-65907200D01*
X86142857Y-65907200D02*
X86000000Y-65954819D01*
X86000000Y-65954819D02*
X85761905Y-65954819D01*
X86666667Y-64954819D02*
X87285714Y-64954819D01*
X87285714Y-64954819D02*
X86952381Y-65335771D01*
X86952381Y-65335771D02*
X87095238Y-65335771D01*
X87095238Y-65335771D02*
X87190476Y-65383390D01*
X87190476Y-65383390D02*
X87238095Y-65431009D01*
X87238095Y-65431009D02*
X87285714Y-65526247D01*
X87285714Y-65526247D02*
X87285714Y-65764342D01*
X87285714Y-65764342D02*
X87238095Y-65859580D01*
X87238095Y-65859580D02*
X87190476Y-65907200D01*
X87190476Y-65907200D02*
X87095238Y-65954819D01*
X87095238Y-65954819D02*
X86809524Y-65954819D01*
X86809524Y-65954819D02*
X86714286Y-65907200D01*
X86714286Y-65907200D02*
X86666667Y-65859580D01*
X86333333Y-63954819D02*
X86000000Y-63478628D01*
X85761905Y-63954819D02*
X85761905Y-62954819D01*
X85761905Y-62954819D02*
X86142857Y-62954819D01*
X86142857Y-62954819D02*
X86238095Y-63002438D01*
X86238095Y-63002438D02*
X86285714Y-63050057D01*
X86285714Y-63050057D02*
X86333333Y-63145295D01*
X86333333Y-63145295D02*
X86333333Y-63288152D01*
X86333333Y-63288152D02*
X86285714Y-63383390D01*
X86285714Y-63383390D02*
X86238095Y-63431009D01*
X86238095Y-63431009D02*
X86142857Y-63478628D01*
X86142857Y-63478628D02*
X85761905Y-63478628D01*
X86904762Y-63383390D02*
X86809524Y-63335771D01*
X86809524Y-63335771D02*
X86761905Y-63288152D01*
X86761905Y-63288152D02*
X86714286Y-63192914D01*
X86714286Y-63192914D02*
X86714286Y-63145295D01*
X86714286Y-63145295D02*
X86761905Y-63050057D01*
X86761905Y-63050057D02*
X86809524Y-63002438D01*
X86809524Y-63002438D02*
X86904762Y-62954819D01*
X86904762Y-62954819D02*
X87095238Y-62954819D01*
X87095238Y-62954819D02*
X87190476Y-63002438D01*
X87190476Y-63002438D02*
X87238095Y-63050057D01*
X87238095Y-63050057D02*
X87285714Y-63145295D01*
X87285714Y-63145295D02*
X87285714Y-63192914D01*
X87285714Y-63192914D02*
X87238095Y-63288152D01*
X87238095Y-63288152D02*
X87190476Y-63335771D01*
X87190476Y-63335771D02*
X87095238Y-63383390D01*
X87095238Y-63383390D02*
X86904762Y-63383390D01*
X86904762Y-63383390D02*
X86809524Y-63431009D01*
X86809524Y-63431009D02*
X86761905Y-63478628D01*
X86761905Y-63478628D02*
X86714286Y-63573866D01*
X86714286Y-63573866D02*
X86714286Y-63764342D01*
X86714286Y-63764342D02*
X86761905Y-63859580D01*
X86761905Y-63859580D02*
X86809524Y-63907200D01*
X86809524Y-63907200D02*
X86904762Y-63954819D01*
X86904762Y-63954819D02*
X87095238Y-63954819D01*
X87095238Y-63954819D02*
X87190476Y-63907200D01*
X87190476Y-63907200D02*
X87238095Y-63859580D01*
X87238095Y-63859580D02*
X87285714Y-63764342D01*
X87285714Y-63764342D02*
X87285714Y-63573866D01*
X87285714Y-63573866D02*
X87238095Y-63478628D01*
X87238095Y-63478628D02*
X87190476Y-63431009D01*
X87190476Y-63431009D02*
X87095238Y-63383390D01*
X80833333Y-72359580D02*
X80785714Y-72407200D01*
X80785714Y-72407200D02*
X80642857Y-72454819D01*
X80642857Y-72454819D02*
X80547619Y-72454819D01*
X80547619Y-72454819D02*
X80404762Y-72407200D01*
X80404762Y-72407200D02*
X80309524Y-72311961D01*
X80309524Y-72311961D02*
X80261905Y-72216723D01*
X80261905Y-72216723D02*
X80214286Y-72026247D01*
X80214286Y-72026247D02*
X80214286Y-71883390D01*
X80214286Y-71883390D02*
X80261905Y-71692914D01*
X80261905Y-71692914D02*
X80309524Y-71597676D01*
X80309524Y-71597676D02*
X80404762Y-71502438D01*
X80404762Y-71502438D02*
X80547619Y-71454819D01*
X80547619Y-71454819D02*
X80642857Y-71454819D01*
X80642857Y-71454819D02*
X80785714Y-71502438D01*
X80785714Y-71502438D02*
X80833333Y-71550057D01*
X81690476Y-71788152D02*
X81690476Y-72454819D01*
X81452381Y-71407200D02*
X81214286Y-72121485D01*
X81214286Y-72121485D02*
X81833333Y-72121485D01*
X68357142Y-63454819D02*
X68023809Y-62978628D01*
X67785714Y-63454819D02*
X67785714Y-62454819D01*
X67785714Y-62454819D02*
X68166666Y-62454819D01*
X68166666Y-62454819D02*
X68261904Y-62502438D01*
X68261904Y-62502438D02*
X68309523Y-62550057D01*
X68309523Y-62550057D02*
X68357142Y-62645295D01*
X68357142Y-62645295D02*
X68357142Y-62788152D01*
X68357142Y-62788152D02*
X68309523Y-62883390D01*
X68309523Y-62883390D02*
X68261904Y-62931009D01*
X68261904Y-62931009D02*
X68166666Y-62978628D01*
X68166666Y-62978628D02*
X67785714Y-62978628D01*
X69309523Y-63454819D02*
X68738095Y-63454819D01*
X69023809Y-63454819D02*
X69023809Y-62454819D01*
X69023809Y-62454819D02*
X68928571Y-62597676D01*
X68928571Y-62597676D02*
X68833333Y-62692914D01*
X68833333Y-62692914D02*
X68738095Y-62740533D01*
X70261904Y-63454819D02*
X69690476Y-63454819D01*
X69976190Y-63454819D02*
X69976190Y-62454819D01*
X69976190Y-62454819D02*
X69880952Y-62597676D01*
X69880952Y-62597676D02*
X69785714Y-62692914D01*
X69785714Y-62692914D02*
X69690476Y-62740533D01*
X86333333Y-67954819D02*
X86000000Y-67478628D01*
X85761905Y-67954819D02*
X85761905Y-66954819D01*
X85761905Y-66954819D02*
X86142857Y-66954819D01*
X86142857Y-66954819D02*
X86238095Y-67002438D01*
X86238095Y-67002438D02*
X86285714Y-67050057D01*
X86285714Y-67050057D02*
X86333333Y-67145295D01*
X86333333Y-67145295D02*
X86333333Y-67288152D01*
X86333333Y-67288152D02*
X86285714Y-67383390D01*
X86285714Y-67383390D02*
X86238095Y-67431009D01*
X86238095Y-67431009D02*
X86142857Y-67478628D01*
X86142857Y-67478628D02*
X85761905Y-67478628D01*
X86666667Y-66954819D02*
X87333333Y-66954819D01*
X87333333Y-66954819D02*
X86904762Y-67954819D01*
X63833333Y-78134580D02*
X63785714Y-78182200D01*
X63785714Y-78182200D02*
X63642857Y-78229819D01*
X63642857Y-78229819D02*
X63547619Y-78229819D01*
X63547619Y-78229819D02*
X63404762Y-78182200D01*
X63404762Y-78182200D02*
X63309524Y-78086961D01*
X63309524Y-78086961D02*
X63261905Y-77991723D01*
X63261905Y-77991723D02*
X63214286Y-77801247D01*
X63214286Y-77801247D02*
X63214286Y-77658390D01*
X63214286Y-77658390D02*
X63261905Y-77467914D01*
X63261905Y-77467914D02*
X63309524Y-77372676D01*
X63309524Y-77372676D02*
X63404762Y-77277438D01*
X63404762Y-77277438D02*
X63547619Y-77229819D01*
X63547619Y-77229819D02*
X63642857Y-77229819D01*
X63642857Y-77229819D02*
X63785714Y-77277438D01*
X63785714Y-77277438D02*
X63833333Y-77325057D01*
X64690476Y-77229819D02*
X64500000Y-77229819D01*
X64500000Y-77229819D02*
X64404762Y-77277438D01*
X64404762Y-77277438D02*
X64357143Y-77325057D01*
X64357143Y-77325057D02*
X64261905Y-77467914D01*
X64261905Y-77467914D02*
X64214286Y-77658390D01*
X64214286Y-77658390D02*
X64214286Y-78039342D01*
X64214286Y-78039342D02*
X64261905Y-78134580D01*
X64261905Y-78134580D02*
X64309524Y-78182200D01*
X64309524Y-78182200D02*
X64404762Y-78229819D01*
X64404762Y-78229819D02*
X64595238Y-78229819D01*
X64595238Y-78229819D02*
X64690476Y-78182200D01*
X64690476Y-78182200D02*
X64738095Y-78134580D01*
X64738095Y-78134580D02*
X64785714Y-78039342D01*
X64785714Y-78039342D02*
X64785714Y-77801247D01*
X64785714Y-77801247D02*
X64738095Y-77706009D01*
X64738095Y-77706009D02*
X64690476Y-77658390D01*
X64690476Y-77658390D02*
X64595238Y-77610771D01*
X64595238Y-77610771D02*
X64404762Y-77610771D01*
X64404762Y-77610771D02*
X64309524Y-77658390D01*
X64309524Y-77658390D02*
X64261905Y-77706009D01*
X64261905Y-77706009D02*
X64214286Y-77801247D01*
X74357142Y-60954819D02*
X74023809Y-60478628D01*
X73785714Y-60954819D02*
X73785714Y-59954819D01*
X73785714Y-59954819D02*
X74166666Y-59954819D01*
X74166666Y-59954819D02*
X74261904Y-60002438D01*
X74261904Y-60002438D02*
X74309523Y-60050057D01*
X74309523Y-60050057D02*
X74357142Y-60145295D01*
X74357142Y-60145295D02*
X74357142Y-60288152D01*
X74357142Y-60288152D02*
X74309523Y-60383390D01*
X74309523Y-60383390D02*
X74261904Y-60431009D01*
X74261904Y-60431009D02*
X74166666Y-60478628D01*
X74166666Y-60478628D02*
X73785714Y-60478628D01*
X75309523Y-60954819D02*
X74738095Y-60954819D01*
X75023809Y-60954819D02*
X75023809Y-59954819D01*
X75023809Y-59954819D02*
X74928571Y-60097676D01*
X74928571Y-60097676D02*
X74833333Y-60192914D01*
X74833333Y-60192914D02*
X74738095Y-60240533D01*
X75928571Y-59954819D02*
X76023809Y-59954819D01*
X76023809Y-59954819D02*
X76119047Y-60002438D01*
X76119047Y-60002438D02*
X76166666Y-60050057D01*
X76166666Y-60050057D02*
X76214285Y-60145295D01*
X76214285Y-60145295D02*
X76261904Y-60335771D01*
X76261904Y-60335771D02*
X76261904Y-60573866D01*
X76261904Y-60573866D02*
X76214285Y-60764342D01*
X76214285Y-60764342D02*
X76166666Y-60859580D01*
X76166666Y-60859580D02*
X76119047Y-60907200D01*
X76119047Y-60907200D02*
X76023809Y-60954819D01*
X76023809Y-60954819D02*
X75928571Y-60954819D01*
X75928571Y-60954819D02*
X75833333Y-60907200D01*
X75833333Y-60907200D02*
X75785714Y-60859580D01*
X75785714Y-60859580D02*
X75738095Y-60764342D01*
X75738095Y-60764342D02*
X75690476Y-60573866D01*
X75690476Y-60573866D02*
X75690476Y-60335771D01*
X75690476Y-60335771D02*
X75738095Y-60145295D01*
X75738095Y-60145295D02*
X75785714Y-60050057D01*
X75785714Y-60050057D02*
X75833333Y-60002438D01*
X75833333Y-60002438D02*
X75928571Y-59954819D01*
X66833333Y-69359580D02*
X66785714Y-69407200D01*
X66785714Y-69407200D02*
X66642857Y-69454819D01*
X66642857Y-69454819D02*
X66547619Y-69454819D01*
X66547619Y-69454819D02*
X66404762Y-69407200D01*
X66404762Y-69407200D02*
X66309524Y-69311961D01*
X66309524Y-69311961D02*
X66261905Y-69216723D01*
X66261905Y-69216723D02*
X66214286Y-69026247D01*
X66214286Y-69026247D02*
X66214286Y-68883390D01*
X66214286Y-68883390D02*
X66261905Y-68692914D01*
X66261905Y-68692914D02*
X66309524Y-68597676D01*
X66309524Y-68597676D02*
X66404762Y-68502438D01*
X66404762Y-68502438D02*
X66547619Y-68454819D01*
X66547619Y-68454819D02*
X66642857Y-68454819D01*
X66642857Y-68454819D02*
X66785714Y-68502438D01*
X66785714Y-68502438D02*
X66833333Y-68550057D01*
X67214286Y-68550057D02*
X67261905Y-68502438D01*
X67261905Y-68502438D02*
X67357143Y-68454819D01*
X67357143Y-68454819D02*
X67595238Y-68454819D01*
X67595238Y-68454819D02*
X67690476Y-68502438D01*
X67690476Y-68502438D02*
X67738095Y-68550057D01*
X67738095Y-68550057D02*
X67785714Y-68645295D01*
X67785714Y-68645295D02*
X67785714Y-68740533D01*
X67785714Y-68740533D02*
X67738095Y-68883390D01*
X67738095Y-68883390D02*
X67166667Y-69454819D01*
X67166667Y-69454819D02*
X67785714Y-69454819D01*
X63833333Y-85377080D02*
X63785714Y-85424700D01*
X63785714Y-85424700D02*
X63642857Y-85472319D01*
X63642857Y-85472319D02*
X63547619Y-85472319D01*
X63547619Y-85472319D02*
X63404762Y-85424700D01*
X63404762Y-85424700D02*
X63309524Y-85329461D01*
X63309524Y-85329461D02*
X63261905Y-85234223D01*
X63261905Y-85234223D02*
X63214286Y-85043747D01*
X63214286Y-85043747D02*
X63214286Y-84900890D01*
X63214286Y-84900890D02*
X63261905Y-84710414D01*
X63261905Y-84710414D02*
X63309524Y-84615176D01*
X63309524Y-84615176D02*
X63404762Y-84519938D01*
X63404762Y-84519938D02*
X63547619Y-84472319D01*
X63547619Y-84472319D02*
X63642857Y-84472319D01*
X63642857Y-84472319D02*
X63785714Y-84519938D01*
X63785714Y-84519938D02*
X63833333Y-84567557D01*
X64404762Y-84900890D02*
X64309524Y-84853271D01*
X64309524Y-84853271D02*
X64261905Y-84805652D01*
X64261905Y-84805652D02*
X64214286Y-84710414D01*
X64214286Y-84710414D02*
X64214286Y-84662795D01*
X64214286Y-84662795D02*
X64261905Y-84567557D01*
X64261905Y-84567557D02*
X64309524Y-84519938D01*
X64309524Y-84519938D02*
X64404762Y-84472319D01*
X64404762Y-84472319D02*
X64595238Y-84472319D01*
X64595238Y-84472319D02*
X64690476Y-84519938D01*
X64690476Y-84519938D02*
X64738095Y-84567557D01*
X64738095Y-84567557D02*
X64785714Y-84662795D01*
X64785714Y-84662795D02*
X64785714Y-84710414D01*
X64785714Y-84710414D02*
X64738095Y-84805652D01*
X64738095Y-84805652D02*
X64690476Y-84853271D01*
X64690476Y-84853271D02*
X64595238Y-84900890D01*
X64595238Y-84900890D02*
X64404762Y-84900890D01*
X64404762Y-84900890D02*
X64309524Y-84948509D01*
X64309524Y-84948509D02*
X64261905Y-84996128D01*
X64261905Y-84996128D02*
X64214286Y-85091366D01*
X64214286Y-85091366D02*
X64214286Y-85281842D01*
X64214286Y-85281842D02*
X64261905Y-85377080D01*
X64261905Y-85377080D02*
X64309524Y-85424700D01*
X64309524Y-85424700D02*
X64404762Y-85472319D01*
X64404762Y-85472319D02*
X64595238Y-85472319D01*
X64595238Y-85472319D02*
X64690476Y-85424700D01*
X64690476Y-85424700D02*
X64738095Y-85377080D01*
X64738095Y-85377080D02*
X64785714Y-85281842D01*
X64785714Y-85281842D02*
X64785714Y-85091366D01*
X64785714Y-85091366D02*
X64738095Y-84996128D01*
X64738095Y-84996128D02*
X64690476Y-84948509D01*
X64690476Y-84948509D02*
X64595238Y-84900890D01*
X73357142Y-65954819D02*
X73023809Y-65478628D01*
X72785714Y-65954819D02*
X72785714Y-64954819D01*
X72785714Y-64954819D02*
X73166666Y-64954819D01*
X73166666Y-64954819D02*
X73261904Y-65002438D01*
X73261904Y-65002438D02*
X73309523Y-65050057D01*
X73309523Y-65050057D02*
X73357142Y-65145295D01*
X73357142Y-65145295D02*
X73357142Y-65288152D01*
X73357142Y-65288152D02*
X73309523Y-65383390D01*
X73309523Y-65383390D02*
X73261904Y-65431009D01*
X73261904Y-65431009D02*
X73166666Y-65478628D01*
X73166666Y-65478628D02*
X72785714Y-65478628D01*
X74309523Y-65954819D02*
X73738095Y-65954819D01*
X74023809Y-65954819D02*
X74023809Y-64954819D01*
X74023809Y-64954819D02*
X73928571Y-65097676D01*
X73928571Y-65097676D02*
X73833333Y-65192914D01*
X73833333Y-65192914D02*
X73738095Y-65240533D01*
X74690476Y-65050057D02*
X74738095Y-65002438D01*
X74738095Y-65002438D02*
X74833333Y-64954819D01*
X74833333Y-64954819D02*
X75071428Y-64954819D01*
X75071428Y-64954819D02*
X75166666Y-65002438D01*
X75166666Y-65002438D02*
X75214285Y-65050057D01*
X75214285Y-65050057D02*
X75261904Y-65145295D01*
X75261904Y-65145295D02*
X75261904Y-65240533D01*
X75261904Y-65240533D02*
X75214285Y-65383390D01*
X75214285Y-65383390D02*
X74642857Y-65954819D01*
X74642857Y-65954819D02*
X75261904Y-65954819D01*
X74549405Y-58954819D02*
X74549405Y-57954819D01*
X74549405Y-57954819D02*
X74787500Y-57954819D01*
X74787500Y-57954819D02*
X74930357Y-58002438D01*
X74930357Y-58002438D02*
X75025595Y-58097676D01*
X75025595Y-58097676D02*
X75073214Y-58192914D01*
X75073214Y-58192914D02*
X75120833Y-58383390D01*
X75120833Y-58383390D02*
X75120833Y-58526247D01*
X75120833Y-58526247D02*
X75073214Y-58716723D01*
X75073214Y-58716723D02*
X75025595Y-58811961D01*
X75025595Y-58811961D02*
X74930357Y-58907200D01*
X74930357Y-58907200D02*
X74787500Y-58954819D01*
X74787500Y-58954819D02*
X74549405Y-58954819D01*
X75977976Y-57954819D02*
X75787500Y-57954819D01*
X75787500Y-57954819D02*
X75692262Y-58002438D01*
X75692262Y-58002438D02*
X75644643Y-58050057D01*
X75644643Y-58050057D02*
X75549405Y-58192914D01*
X75549405Y-58192914D02*
X75501786Y-58383390D01*
X75501786Y-58383390D02*
X75501786Y-58764342D01*
X75501786Y-58764342D02*
X75549405Y-58859580D01*
X75549405Y-58859580D02*
X75597024Y-58907200D01*
X75597024Y-58907200D02*
X75692262Y-58954819D01*
X75692262Y-58954819D02*
X75882738Y-58954819D01*
X75882738Y-58954819D02*
X75977976Y-58907200D01*
X75977976Y-58907200D02*
X76025595Y-58859580D01*
X76025595Y-58859580D02*
X76073214Y-58764342D01*
X76073214Y-58764342D02*
X76073214Y-58526247D01*
X76073214Y-58526247D02*
X76025595Y-58431009D01*
X76025595Y-58431009D02*
X75977976Y-58383390D01*
X75977976Y-58383390D02*
X75882738Y-58335771D01*
X75882738Y-58335771D02*
X75692262Y-58335771D01*
X75692262Y-58335771D02*
X75597024Y-58383390D01*
X75597024Y-58383390D02*
X75549405Y-58431009D01*
X75549405Y-58431009D02*
X75501786Y-58526247D01*
X85761905Y-73954819D02*
X85761905Y-72954819D01*
X85761905Y-72954819D02*
X86000000Y-72954819D01*
X86000000Y-72954819D02*
X86142857Y-73002438D01*
X86142857Y-73002438D02*
X86238095Y-73097676D01*
X86238095Y-73097676D02*
X86285714Y-73192914D01*
X86285714Y-73192914D02*
X86333333Y-73383390D01*
X86333333Y-73383390D02*
X86333333Y-73526247D01*
X86333333Y-73526247D02*
X86285714Y-73716723D01*
X86285714Y-73716723D02*
X86238095Y-73811961D01*
X86238095Y-73811961D02*
X86142857Y-73907200D01*
X86142857Y-73907200D02*
X86000000Y-73954819D01*
X86000000Y-73954819D02*
X85761905Y-73954819D01*
X87238095Y-72954819D02*
X86761905Y-72954819D01*
X86761905Y-72954819D02*
X86714286Y-73431009D01*
X86714286Y-73431009D02*
X86761905Y-73383390D01*
X86761905Y-73383390D02*
X86857143Y-73335771D01*
X86857143Y-73335771D02*
X87095238Y-73335771D01*
X87095238Y-73335771D02*
X87190476Y-73383390D01*
X87190476Y-73383390D02*
X87238095Y-73431009D01*
X87238095Y-73431009D02*
X87285714Y-73526247D01*
X87285714Y-73526247D02*
X87285714Y-73764342D01*
X87285714Y-73764342D02*
X87238095Y-73859580D01*
X87238095Y-73859580D02*
X87190476Y-73907200D01*
X87190476Y-73907200D02*
X87095238Y-73954819D01*
X87095238Y-73954819D02*
X86857143Y-73954819D01*
X86857143Y-73954819D02*
X86761905Y-73907200D01*
X86761905Y-73907200D02*
X86714286Y-73859580D01*
X76357142Y-91359580D02*
X76309523Y-91407200D01*
X76309523Y-91407200D02*
X76166666Y-91454819D01*
X76166666Y-91454819D02*
X76071428Y-91454819D01*
X76071428Y-91454819D02*
X75928571Y-91407200D01*
X75928571Y-91407200D02*
X75833333Y-91311961D01*
X75833333Y-91311961D02*
X75785714Y-91216723D01*
X75785714Y-91216723D02*
X75738095Y-91026247D01*
X75738095Y-91026247D02*
X75738095Y-90883390D01*
X75738095Y-90883390D02*
X75785714Y-90692914D01*
X75785714Y-90692914D02*
X75833333Y-90597676D01*
X75833333Y-90597676D02*
X75928571Y-90502438D01*
X75928571Y-90502438D02*
X76071428Y-90454819D01*
X76071428Y-90454819D02*
X76166666Y-90454819D01*
X76166666Y-90454819D02*
X76309523Y-90502438D01*
X76309523Y-90502438D02*
X76357142Y-90550057D01*
X77309523Y-91454819D02*
X76738095Y-91454819D01*
X77023809Y-91454819D02*
X77023809Y-90454819D01*
X77023809Y-90454819D02*
X76928571Y-90597676D01*
X76928571Y-90597676D02*
X76833333Y-90692914D01*
X76833333Y-90692914D02*
X76738095Y-90740533D01*
X77690476Y-90550057D02*
X77738095Y-90502438D01*
X77738095Y-90502438D02*
X77833333Y-90454819D01*
X77833333Y-90454819D02*
X78071428Y-90454819D01*
X78071428Y-90454819D02*
X78166666Y-90502438D01*
X78166666Y-90502438D02*
X78214285Y-90550057D01*
X78214285Y-90550057D02*
X78261904Y-90645295D01*
X78261904Y-90645295D02*
X78261904Y-90740533D01*
X78261904Y-90740533D02*
X78214285Y-90883390D01*
X78214285Y-90883390D02*
X77642857Y-91454819D01*
X77642857Y-91454819D02*
X78261904Y-91454819D01*
X60833333Y-83859580D02*
X60785714Y-83907200D01*
X60785714Y-83907200D02*
X60642857Y-83954819D01*
X60642857Y-83954819D02*
X60547619Y-83954819D01*
X60547619Y-83954819D02*
X60404762Y-83907200D01*
X60404762Y-83907200D02*
X60309524Y-83811961D01*
X60309524Y-83811961D02*
X60261905Y-83716723D01*
X60261905Y-83716723D02*
X60214286Y-83526247D01*
X60214286Y-83526247D02*
X60214286Y-83383390D01*
X60214286Y-83383390D02*
X60261905Y-83192914D01*
X60261905Y-83192914D02*
X60309524Y-83097676D01*
X60309524Y-83097676D02*
X60404762Y-83002438D01*
X60404762Y-83002438D02*
X60547619Y-82954819D01*
X60547619Y-82954819D02*
X60642857Y-82954819D01*
X60642857Y-82954819D02*
X60785714Y-83002438D01*
X60785714Y-83002438D02*
X60833333Y-83050057D01*
X61309524Y-83954819D02*
X61500000Y-83954819D01*
X61500000Y-83954819D02*
X61595238Y-83907200D01*
X61595238Y-83907200D02*
X61642857Y-83859580D01*
X61642857Y-83859580D02*
X61738095Y-83716723D01*
X61738095Y-83716723D02*
X61785714Y-83526247D01*
X61785714Y-83526247D02*
X61785714Y-83145295D01*
X61785714Y-83145295D02*
X61738095Y-83050057D01*
X61738095Y-83050057D02*
X61690476Y-83002438D01*
X61690476Y-83002438D02*
X61595238Y-82954819D01*
X61595238Y-82954819D02*
X61404762Y-82954819D01*
X61404762Y-82954819D02*
X61309524Y-83002438D01*
X61309524Y-83002438D02*
X61261905Y-83050057D01*
X61261905Y-83050057D02*
X61214286Y-83145295D01*
X61214286Y-83145295D02*
X61214286Y-83383390D01*
X61214286Y-83383390D02*
X61261905Y-83478628D01*
X61261905Y-83478628D02*
X61309524Y-83526247D01*
X61309524Y-83526247D02*
X61404762Y-83573866D01*
X61404762Y-83573866D02*
X61595238Y-83573866D01*
X61595238Y-83573866D02*
X61690476Y-83526247D01*
X61690476Y-83526247D02*
X61738095Y-83478628D01*
X61738095Y-83478628D02*
X61785714Y-83383390D01*
X82833333Y-91454819D02*
X82500000Y-90978628D01*
X82261905Y-91454819D02*
X82261905Y-90454819D01*
X82261905Y-90454819D02*
X82642857Y-90454819D01*
X82642857Y-90454819D02*
X82738095Y-90502438D01*
X82738095Y-90502438D02*
X82785714Y-90550057D01*
X82785714Y-90550057D02*
X82833333Y-90645295D01*
X82833333Y-90645295D02*
X82833333Y-90788152D01*
X82833333Y-90788152D02*
X82785714Y-90883390D01*
X82785714Y-90883390D02*
X82738095Y-90931009D01*
X82738095Y-90931009D02*
X82642857Y-90978628D01*
X82642857Y-90978628D02*
X82261905Y-90978628D01*
X83690476Y-90788152D02*
X83690476Y-91454819D01*
X83452381Y-90407200D02*
X83214286Y-91121485D01*
X83214286Y-91121485D02*
X83833333Y-91121485D01*
X64293333Y-68954819D02*
X63960000Y-68478628D01*
X63721905Y-68954819D02*
X63721905Y-67954819D01*
X63721905Y-67954819D02*
X64102857Y-67954819D01*
X64102857Y-67954819D02*
X64198095Y-68002438D01*
X64198095Y-68002438D02*
X64245714Y-68050057D01*
X64245714Y-68050057D02*
X64293333Y-68145295D01*
X64293333Y-68145295D02*
X64293333Y-68288152D01*
X64293333Y-68288152D02*
X64245714Y-68383390D01*
X64245714Y-68383390D02*
X64198095Y-68431009D01*
X64198095Y-68431009D02*
X64102857Y-68478628D01*
X64102857Y-68478628D02*
X63721905Y-68478628D01*
X65245714Y-68954819D02*
X64674286Y-68954819D01*
X64960000Y-68954819D02*
X64960000Y-67954819D01*
X64960000Y-67954819D02*
X64864762Y-68097676D01*
X64864762Y-68097676D02*
X64769524Y-68192914D01*
X64769524Y-68192914D02*
X64674286Y-68240533D01*
X59357142Y-72359580D02*
X59309523Y-72407200D01*
X59309523Y-72407200D02*
X59166666Y-72454819D01*
X59166666Y-72454819D02*
X59071428Y-72454819D01*
X59071428Y-72454819D02*
X58928571Y-72407200D01*
X58928571Y-72407200D02*
X58833333Y-72311961D01*
X58833333Y-72311961D02*
X58785714Y-72216723D01*
X58785714Y-72216723D02*
X58738095Y-72026247D01*
X58738095Y-72026247D02*
X58738095Y-71883390D01*
X58738095Y-71883390D02*
X58785714Y-71692914D01*
X58785714Y-71692914D02*
X58833333Y-71597676D01*
X58833333Y-71597676D02*
X58928571Y-71502438D01*
X58928571Y-71502438D02*
X59071428Y-71454819D01*
X59071428Y-71454819D02*
X59166666Y-71454819D01*
X59166666Y-71454819D02*
X59309523Y-71502438D01*
X59309523Y-71502438D02*
X59357142Y-71550057D01*
X60309523Y-72454819D02*
X59738095Y-72454819D01*
X60023809Y-72454819D02*
X60023809Y-71454819D01*
X60023809Y-71454819D02*
X59928571Y-71597676D01*
X59928571Y-71597676D02*
X59833333Y-71692914D01*
X59833333Y-71692914D02*
X59738095Y-71740533D01*
X60928571Y-71454819D02*
X61023809Y-71454819D01*
X61023809Y-71454819D02*
X61119047Y-71502438D01*
X61119047Y-71502438D02*
X61166666Y-71550057D01*
X61166666Y-71550057D02*
X61214285Y-71645295D01*
X61214285Y-71645295D02*
X61261904Y-71835771D01*
X61261904Y-71835771D02*
X61261904Y-72073866D01*
X61261904Y-72073866D02*
X61214285Y-72264342D01*
X61214285Y-72264342D02*
X61166666Y-72359580D01*
X61166666Y-72359580D02*
X61119047Y-72407200D01*
X61119047Y-72407200D02*
X61023809Y-72454819D01*
X61023809Y-72454819D02*
X60928571Y-72454819D01*
X60928571Y-72454819D02*
X60833333Y-72407200D01*
X60833333Y-72407200D02*
X60785714Y-72359580D01*
X60785714Y-72359580D02*
X60738095Y-72264342D01*
X60738095Y-72264342D02*
X60690476Y-72073866D01*
X60690476Y-72073866D02*
X60690476Y-71835771D01*
X60690476Y-71835771D02*
X60738095Y-71645295D01*
X60738095Y-71645295D02*
X60785714Y-71550057D01*
X60785714Y-71550057D02*
X60833333Y-71502438D01*
X60833333Y-71502438D02*
X60928571Y-71454819D01*
X56523809Y-77428628D02*
X56523809Y-77904819D01*
X56190476Y-76904819D02*
X56523809Y-77428628D01*
X56523809Y-77428628D02*
X56857142Y-76904819D01*
X57714285Y-77904819D02*
X57142857Y-77904819D01*
X57428571Y-77904819D02*
X57428571Y-76904819D01*
X57428571Y-76904819D02*
X57333333Y-77047676D01*
X57333333Y-77047676D02*
X57238095Y-77142914D01*
X57238095Y-77142914D02*
X57142857Y-77190533D01*
X58182857Y-63431009D02*
X58325714Y-63478628D01*
X58325714Y-63478628D02*
X58373333Y-63526247D01*
X58373333Y-63526247D02*
X58420952Y-63621485D01*
X58420952Y-63621485D02*
X58420952Y-63764342D01*
X58420952Y-63764342D02*
X58373333Y-63859580D01*
X58373333Y-63859580D02*
X58325714Y-63907200D01*
X58325714Y-63907200D02*
X58230476Y-63954819D01*
X58230476Y-63954819D02*
X57849524Y-63954819D01*
X57849524Y-63954819D02*
X57849524Y-62954819D01*
X57849524Y-62954819D02*
X58182857Y-62954819D01*
X58182857Y-62954819D02*
X58278095Y-63002438D01*
X58278095Y-63002438D02*
X58325714Y-63050057D01*
X58325714Y-63050057D02*
X58373333Y-63145295D01*
X58373333Y-63145295D02*
X58373333Y-63240533D01*
X58373333Y-63240533D02*
X58325714Y-63335771D01*
X58325714Y-63335771D02*
X58278095Y-63383390D01*
X58278095Y-63383390D02*
X58182857Y-63431009D01*
X58182857Y-63431009D02*
X57849524Y-63431009D01*
X59040000Y-62954819D02*
X59230476Y-62954819D01*
X59230476Y-62954819D02*
X59325714Y-63002438D01*
X59325714Y-63002438D02*
X59420952Y-63097676D01*
X59420952Y-63097676D02*
X59468571Y-63288152D01*
X59468571Y-63288152D02*
X59468571Y-63621485D01*
X59468571Y-63621485D02*
X59420952Y-63811961D01*
X59420952Y-63811961D02*
X59325714Y-63907200D01*
X59325714Y-63907200D02*
X59230476Y-63954819D01*
X59230476Y-63954819D02*
X59040000Y-63954819D01*
X59040000Y-63954819D02*
X58944762Y-63907200D01*
X58944762Y-63907200D02*
X58849524Y-63811961D01*
X58849524Y-63811961D02*
X58801905Y-63621485D01*
X58801905Y-63621485D02*
X58801905Y-63288152D01*
X58801905Y-63288152D02*
X58849524Y-63097676D01*
X58849524Y-63097676D02*
X58944762Y-63002438D01*
X58944762Y-63002438D02*
X59040000Y-62954819D01*
X60087619Y-62954819D02*
X60278095Y-62954819D01*
X60278095Y-62954819D02*
X60373333Y-63002438D01*
X60373333Y-63002438D02*
X60468571Y-63097676D01*
X60468571Y-63097676D02*
X60516190Y-63288152D01*
X60516190Y-63288152D02*
X60516190Y-63621485D01*
X60516190Y-63621485D02*
X60468571Y-63811961D01*
X60468571Y-63811961D02*
X60373333Y-63907200D01*
X60373333Y-63907200D02*
X60278095Y-63954819D01*
X60278095Y-63954819D02*
X60087619Y-63954819D01*
X60087619Y-63954819D02*
X59992381Y-63907200D01*
X59992381Y-63907200D02*
X59897143Y-63811961D01*
X59897143Y-63811961D02*
X59849524Y-63621485D01*
X59849524Y-63621485D02*
X59849524Y-63288152D01*
X59849524Y-63288152D02*
X59897143Y-63097676D01*
X59897143Y-63097676D02*
X59992381Y-63002438D01*
X59992381Y-63002438D02*
X60087619Y-62954819D01*
X60801905Y-62954819D02*
X61373333Y-62954819D01*
X61087619Y-63954819D02*
X61087619Y-62954819D01*
X85761905Y-69954819D02*
X85761905Y-68954819D01*
X85761905Y-68954819D02*
X86000000Y-68954819D01*
X86000000Y-68954819D02*
X86142857Y-69002438D01*
X86142857Y-69002438D02*
X86238095Y-69097676D01*
X86238095Y-69097676D02*
X86285714Y-69192914D01*
X86285714Y-69192914D02*
X86333333Y-69383390D01*
X86333333Y-69383390D02*
X86333333Y-69526247D01*
X86333333Y-69526247D02*
X86285714Y-69716723D01*
X86285714Y-69716723D02*
X86238095Y-69811961D01*
X86238095Y-69811961D02*
X86142857Y-69907200D01*
X86142857Y-69907200D02*
X86000000Y-69954819D01*
X86000000Y-69954819D02*
X85761905Y-69954819D01*
X86714286Y-69050057D02*
X86761905Y-69002438D01*
X86761905Y-69002438D02*
X86857143Y-68954819D01*
X86857143Y-68954819D02*
X87095238Y-68954819D01*
X87095238Y-68954819D02*
X87190476Y-69002438D01*
X87190476Y-69002438D02*
X87238095Y-69050057D01*
X87238095Y-69050057D02*
X87285714Y-69145295D01*
X87285714Y-69145295D02*
X87285714Y-69240533D01*
X87285714Y-69240533D02*
X87238095Y-69383390D01*
X87238095Y-69383390D02*
X86666667Y-69954819D01*
X86666667Y-69954819D02*
X87285714Y-69954819D01*
X81833333Y-60454819D02*
X81500000Y-59978628D01*
X81261905Y-60454819D02*
X81261905Y-59454819D01*
X81261905Y-59454819D02*
X81642857Y-59454819D01*
X81642857Y-59454819D02*
X81738095Y-59502438D01*
X81738095Y-59502438D02*
X81785714Y-59550057D01*
X81785714Y-59550057D02*
X81833333Y-59645295D01*
X81833333Y-59645295D02*
X81833333Y-59788152D01*
X81833333Y-59788152D02*
X81785714Y-59883390D01*
X81785714Y-59883390D02*
X81738095Y-59931009D01*
X81738095Y-59931009D02*
X81642857Y-59978628D01*
X81642857Y-59978628D02*
X81261905Y-59978628D01*
X82309524Y-60454819D02*
X82500000Y-60454819D01*
X82500000Y-60454819D02*
X82595238Y-60407200D01*
X82595238Y-60407200D02*
X82642857Y-60359580D01*
X82642857Y-60359580D02*
X82738095Y-60216723D01*
X82738095Y-60216723D02*
X82785714Y-60026247D01*
X82785714Y-60026247D02*
X82785714Y-59645295D01*
X82785714Y-59645295D02*
X82738095Y-59550057D01*
X82738095Y-59550057D02*
X82690476Y-59502438D01*
X82690476Y-59502438D02*
X82595238Y-59454819D01*
X82595238Y-59454819D02*
X82404762Y-59454819D01*
X82404762Y-59454819D02*
X82309524Y-59502438D01*
X82309524Y-59502438D02*
X82261905Y-59550057D01*
X82261905Y-59550057D02*
X82214286Y-59645295D01*
X82214286Y-59645295D02*
X82214286Y-59883390D01*
X82214286Y-59883390D02*
X82261905Y-59978628D01*
X82261905Y-59978628D02*
X82309524Y-60026247D01*
X82309524Y-60026247D02*
X82404762Y-60073866D01*
X82404762Y-60073866D02*
X82595238Y-60073866D01*
X82595238Y-60073866D02*
X82690476Y-60026247D01*
X82690476Y-60026247D02*
X82738095Y-59978628D01*
X82738095Y-59978628D02*
X82785714Y-59883390D01*
X73158333Y-86024819D02*
X72825000Y-85548628D01*
X72586905Y-86024819D02*
X72586905Y-85024819D01*
X72586905Y-85024819D02*
X72967857Y-85024819D01*
X72967857Y-85024819D02*
X73063095Y-85072438D01*
X73063095Y-85072438D02*
X73110714Y-85120057D01*
X73110714Y-85120057D02*
X73158333Y-85215295D01*
X73158333Y-85215295D02*
X73158333Y-85358152D01*
X73158333Y-85358152D02*
X73110714Y-85453390D01*
X73110714Y-85453390D02*
X73063095Y-85501009D01*
X73063095Y-85501009D02*
X72967857Y-85548628D01*
X72967857Y-85548628D02*
X72586905Y-85548628D01*
X73539286Y-85120057D02*
X73586905Y-85072438D01*
X73586905Y-85072438D02*
X73682143Y-85024819D01*
X73682143Y-85024819D02*
X73920238Y-85024819D01*
X73920238Y-85024819D02*
X74015476Y-85072438D01*
X74015476Y-85072438D02*
X74063095Y-85120057D01*
X74063095Y-85120057D02*
X74110714Y-85215295D01*
X74110714Y-85215295D02*
X74110714Y-85310533D01*
X74110714Y-85310533D02*
X74063095Y-85453390D01*
X74063095Y-85453390D02*
X73491667Y-86024819D01*
X73491667Y-86024819D02*
X74110714Y-86024819D01*
X67357142Y-98859580D02*
X67309523Y-98907200D01*
X67309523Y-98907200D02*
X67166666Y-98954819D01*
X67166666Y-98954819D02*
X67071428Y-98954819D01*
X67071428Y-98954819D02*
X66928571Y-98907200D01*
X66928571Y-98907200D02*
X66833333Y-98811961D01*
X66833333Y-98811961D02*
X66785714Y-98716723D01*
X66785714Y-98716723D02*
X66738095Y-98526247D01*
X66738095Y-98526247D02*
X66738095Y-98383390D01*
X66738095Y-98383390D02*
X66785714Y-98192914D01*
X66785714Y-98192914D02*
X66833333Y-98097676D01*
X66833333Y-98097676D02*
X66928571Y-98002438D01*
X66928571Y-98002438D02*
X67071428Y-97954819D01*
X67071428Y-97954819D02*
X67166666Y-97954819D01*
X67166666Y-97954819D02*
X67309523Y-98002438D01*
X67309523Y-98002438D02*
X67357142Y-98050057D01*
X68309523Y-98954819D02*
X67738095Y-98954819D01*
X68023809Y-98954819D02*
X68023809Y-97954819D01*
X68023809Y-97954819D02*
X67928571Y-98097676D01*
X67928571Y-98097676D02*
X67833333Y-98192914D01*
X67833333Y-98192914D02*
X67738095Y-98240533D01*
X68642857Y-97954819D02*
X69261904Y-97954819D01*
X69261904Y-97954819D02*
X68928571Y-98335771D01*
X68928571Y-98335771D02*
X69071428Y-98335771D01*
X69071428Y-98335771D02*
X69166666Y-98383390D01*
X69166666Y-98383390D02*
X69214285Y-98431009D01*
X69214285Y-98431009D02*
X69261904Y-98526247D01*
X69261904Y-98526247D02*
X69261904Y-98764342D01*
X69261904Y-98764342D02*
X69214285Y-98859580D01*
X69214285Y-98859580D02*
X69166666Y-98907200D01*
X69166666Y-98907200D02*
X69071428Y-98954819D01*
X69071428Y-98954819D02*
X68785714Y-98954819D01*
X68785714Y-98954819D02*
X68690476Y-98907200D01*
X68690476Y-98907200D02*
X68642857Y-98859580D01*
X84833333Y-91454819D02*
X84500000Y-90978628D01*
X84261905Y-91454819D02*
X84261905Y-90454819D01*
X84261905Y-90454819D02*
X84642857Y-90454819D01*
X84642857Y-90454819D02*
X84738095Y-90502438D01*
X84738095Y-90502438D02*
X84785714Y-90550057D01*
X84785714Y-90550057D02*
X84833333Y-90645295D01*
X84833333Y-90645295D02*
X84833333Y-90788152D01*
X84833333Y-90788152D02*
X84785714Y-90883390D01*
X84785714Y-90883390D02*
X84738095Y-90931009D01*
X84738095Y-90931009D02*
X84642857Y-90978628D01*
X84642857Y-90978628D02*
X84261905Y-90978628D01*
X85166667Y-90454819D02*
X85785714Y-90454819D01*
X85785714Y-90454819D02*
X85452381Y-90835771D01*
X85452381Y-90835771D02*
X85595238Y-90835771D01*
X85595238Y-90835771D02*
X85690476Y-90883390D01*
X85690476Y-90883390D02*
X85738095Y-90931009D01*
X85738095Y-90931009D02*
X85785714Y-91026247D01*
X85785714Y-91026247D02*
X85785714Y-91264342D01*
X85785714Y-91264342D02*
X85738095Y-91359580D01*
X85738095Y-91359580D02*
X85690476Y-91407200D01*
X85690476Y-91407200D02*
X85595238Y-91454819D01*
X85595238Y-91454819D02*
X85309524Y-91454819D01*
X85309524Y-91454819D02*
X85214286Y-91407200D01*
X85214286Y-91407200D02*
X85166667Y-91359580D01*
X57357142Y-79859580D02*
X57309523Y-79907200D01*
X57309523Y-79907200D02*
X57166666Y-79954819D01*
X57166666Y-79954819D02*
X57071428Y-79954819D01*
X57071428Y-79954819D02*
X56928571Y-79907200D01*
X56928571Y-79907200D02*
X56833333Y-79811961D01*
X56833333Y-79811961D02*
X56785714Y-79716723D01*
X56785714Y-79716723D02*
X56738095Y-79526247D01*
X56738095Y-79526247D02*
X56738095Y-79383390D01*
X56738095Y-79383390D02*
X56785714Y-79192914D01*
X56785714Y-79192914D02*
X56833333Y-79097676D01*
X56833333Y-79097676D02*
X56928571Y-79002438D01*
X56928571Y-79002438D02*
X57071428Y-78954819D01*
X57071428Y-78954819D02*
X57166666Y-78954819D01*
X57166666Y-78954819D02*
X57309523Y-79002438D01*
X57309523Y-79002438D02*
X57357142Y-79050057D01*
X58309523Y-79954819D02*
X57738095Y-79954819D01*
X58023809Y-79954819D02*
X58023809Y-78954819D01*
X58023809Y-78954819D02*
X57928571Y-79097676D01*
X57928571Y-79097676D02*
X57833333Y-79192914D01*
X57833333Y-79192914D02*
X57738095Y-79240533D01*
X59261904Y-79954819D02*
X58690476Y-79954819D01*
X58976190Y-79954819D02*
X58976190Y-78954819D01*
X58976190Y-78954819D02*
X58880952Y-79097676D01*
X58880952Y-79097676D02*
X58785714Y-79192914D01*
X58785714Y-79192914D02*
X58690476Y-79240533D01*
X69261905Y-85954819D02*
X69261905Y-84954819D01*
X69261905Y-84954819D02*
X69500000Y-84954819D01*
X69500000Y-84954819D02*
X69642857Y-85002438D01*
X69642857Y-85002438D02*
X69738095Y-85097676D01*
X69738095Y-85097676D02*
X69785714Y-85192914D01*
X69785714Y-85192914D02*
X69833333Y-85383390D01*
X69833333Y-85383390D02*
X69833333Y-85526247D01*
X69833333Y-85526247D02*
X69785714Y-85716723D01*
X69785714Y-85716723D02*
X69738095Y-85811961D01*
X69738095Y-85811961D02*
X69642857Y-85907200D01*
X69642857Y-85907200D02*
X69500000Y-85954819D01*
X69500000Y-85954819D02*
X69261905Y-85954819D01*
X70785714Y-85954819D02*
X70214286Y-85954819D01*
X70500000Y-85954819D02*
X70500000Y-84954819D01*
X70500000Y-84954819D02*
X70404762Y-85097676D01*
X70404762Y-85097676D02*
X70309524Y-85192914D01*
X70309524Y-85192914D02*
X70214286Y-85240533D01*
X64333333Y-72359580D02*
X64285714Y-72407200D01*
X64285714Y-72407200D02*
X64142857Y-72454819D01*
X64142857Y-72454819D02*
X64047619Y-72454819D01*
X64047619Y-72454819D02*
X63904762Y-72407200D01*
X63904762Y-72407200D02*
X63809524Y-72311961D01*
X63809524Y-72311961D02*
X63761905Y-72216723D01*
X63761905Y-72216723D02*
X63714286Y-72026247D01*
X63714286Y-72026247D02*
X63714286Y-71883390D01*
X63714286Y-71883390D02*
X63761905Y-71692914D01*
X63761905Y-71692914D02*
X63809524Y-71597676D01*
X63809524Y-71597676D02*
X63904762Y-71502438D01*
X63904762Y-71502438D02*
X64047619Y-71454819D01*
X64047619Y-71454819D02*
X64142857Y-71454819D01*
X64142857Y-71454819D02*
X64285714Y-71502438D01*
X64285714Y-71502438D02*
X64333333Y-71550057D01*
X65285714Y-72454819D02*
X64714286Y-72454819D01*
X65000000Y-72454819D02*
X65000000Y-71454819D01*
X65000000Y-71454819D02*
X64904762Y-71597676D01*
X64904762Y-71597676D02*
X64809524Y-71692914D01*
X64809524Y-71692914D02*
X64714286Y-71740533D01*
D12*
%TO.C,DEBUG*%
X76170000Y-63170000D02*
X76170000Y-68370000D01*
X81310000Y-63170000D02*
X76170000Y-63170000D01*
X81310000Y-63170000D02*
X81310000Y-65770000D01*
X81310000Y-65770000D02*
X83910000Y-65770000D01*
X82580000Y-63170000D02*
X83910000Y-63170000D01*
X83910000Y-63170000D02*
X83910000Y-64500000D01*
X83910000Y-65770000D02*
X83910000Y-68370000D01*
X83910000Y-68370000D02*
X76170000Y-68370000D01*
%TO.C,R5*%
X89199758Y-74977500D02*
X88725242Y-74977500D01*
X89199758Y-76022500D02*
X88725242Y-76022500D01*
%TO.C,R6*%
X89237258Y-70977500D02*
X88762742Y-70977500D01*
X89237258Y-72022500D02*
X88762742Y-72022500D01*
%TO.C,D7*%
X87515000Y-60765000D02*
X87515000Y-62235000D01*
X87515000Y-62235000D02*
X89800000Y-62235000D01*
X89800000Y-60765000D02*
X87515000Y-60765000D01*
%TO.C,FB1*%
X66265000Y-81272936D02*
X66265000Y-81727064D01*
X67735000Y-81272936D02*
X67735000Y-81727064D01*
%TO.C,C7*%
X64140580Y-80077500D02*
X63859420Y-80077500D01*
X64140580Y-81097500D02*
X63859420Y-81097500D01*
%TO.C,C5*%
X69359420Y-66490000D02*
X69640580Y-66490000D01*
X69359420Y-67510000D02*
X69640580Y-67510000D01*
%TO.C,D4*%
X83015000Y-57765000D02*
X83015000Y-59235000D01*
X83015000Y-59235000D02*
X85300000Y-59235000D01*
X85300000Y-57765000D02*
X83015000Y-57765000D01*
%TO.C,J1*%
X79350000Y-96330000D02*
X79350000Y-94630000D01*
X88690000Y-96330000D02*
X88690000Y-94630000D01*
%TO.C,C3*%
X75140580Y-81990000D02*
X74859420Y-81990000D01*
X75140580Y-83010000D02*
X74859420Y-83010000D01*
%TO.C,D3*%
X87477500Y-64765000D02*
X87477500Y-66235000D01*
X87477500Y-66235000D02*
X89762500Y-66235000D01*
X89762500Y-64765000D02*
X87477500Y-64765000D01*
%TO.C,R8*%
X89274758Y-62977500D02*
X88800242Y-62977500D01*
X89274758Y-64022500D02*
X88800242Y-64022500D01*
%TO.C,U2*%
X68720000Y-89810000D02*
X68720000Y-91070000D01*
X68720000Y-96630000D02*
X68720000Y-95370000D01*
X72480000Y-89810000D02*
X68720000Y-89810000D01*
X72480000Y-96630000D02*
X68720000Y-96630000D01*
X74000000Y-96860000D02*
X73520000Y-96860000D01*
X73760000Y-96530000D01*
X74000000Y-96860000D01*
G36*
X74000000Y-96860000D02*
G01*
X73520000Y-96860000D01*
X73760000Y-96530000D01*
X74000000Y-96860000D01*
G37*
%TO.C,C4*%
X78490000Y-71859420D02*
X78490000Y-72140580D01*
X79510000Y-71859420D02*
X79510000Y-72140580D01*
%TO.C,R11*%
X70477500Y-62262742D02*
X70477500Y-62737258D01*
X71522500Y-62262742D02*
X71522500Y-62737258D01*
%TO.C,U1*%
X68890000Y-72390000D02*
X68890000Y-72840000D01*
X68890000Y-79610000D02*
X68890000Y-79160000D01*
X69340000Y-72390000D02*
X68890000Y-72390000D01*
X69340000Y-79610000D02*
X68890000Y-79610000D01*
X75660000Y-72390000D02*
X76110000Y-72390000D01*
X75660000Y-79610000D02*
X76110000Y-79610000D01*
X76110000Y-72390000D02*
X76110000Y-72840000D01*
X76110000Y-79610000D02*
X76110000Y-79160000D01*
X68300000Y-72840000D02*
X67960000Y-72370000D01*
X68640000Y-72370000D01*
X68300000Y-72840000D01*
G36*
X68300000Y-72840000D02*
G01*
X67960000Y-72370000D01*
X68640000Y-72370000D01*
X68300000Y-72840000D01*
G37*
%TO.C,R7*%
X89237258Y-66977500D02*
X88762742Y-66977500D01*
X89237258Y-68022500D02*
X88762742Y-68022500D01*
%TO.C,C6*%
X65490000Y-78415580D02*
X65490000Y-78134420D01*
X66510000Y-78415580D02*
X66510000Y-78134420D01*
%TO.C,R10*%
X77762742Y-59977500D02*
X78237258Y-59977500D01*
X77762742Y-61022500D02*
X78237258Y-61022500D01*
%TO.C,C2*%
X69634420Y-68490000D02*
X69915580Y-68490000D01*
X69634420Y-69510000D02*
X69915580Y-69510000D01*
%TO.C,C8*%
X64140580Y-83077500D02*
X63859420Y-83077500D01*
X64140580Y-84097500D02*
X63859420Y-84097500D01*
%TO.C,J6*%
X91670000Y-72810000D02*
X91670000Y-60050000D01*
X94330000Y-60050000D02*
X91670000Y-60050000D01*
X94330000Y-72810000D02*
X91670000Y-72810000D01*
X94330000Y-72810000D02*
X94330000Y-60050000D01*
X94330000Y-74080000D02*
X94330000Y-75410000D01*
X94330000Y-75410000D02*
X93000000Y-75410000D01*
%TO.C,R12*%
X72977500Y-63087742D02*
X72977500Y-63562258D01*
X74022500Y-63087742D02*
X74022500Y-63562258D01*
%TO.C,D6*%
X76515000Y-57765000D02*
X76515000Y-59235000D01*
X76515000Y-59235000D02*
X78800000Y-59235000D01*
X78800000Y-57765000D02*
X76515000Y-57765000D01*
%TO.C,D5*%
X87515000Y-72765000D02*
X87515000Y-74235000D01*
X87515000Y-74235000D02*
X89800000Y-74235000D01*
X89800000Y-72765000D02*
X87515000Y-72765000D01*
%TO.C,C12*%
X75620000Y-93079420D02*
X75620000Y-93360580D01*
X76640000Y-93079420D02*
X76640000Y-93360580D01*
%TO.C,C9*%
X60490000Y-81279420D02*
X60490000Y-81560580D01*
X61510000Y-81279420D02*
X61510000Y-81560580D01*
%TO.C,R4*%
X82477500Y-88737258D02*
X82477500Y-88262742D01*
X83522500Y-88737258D02*
X83522500Y-88262742D01*
%TO.C,R1*%
X61397742Y-68477500D02*
X61872258Y-68477500D01*
X61397742Y-69522500D02*
X61872258Y-69522500D01*
%TO.C,C10*%
X59490000Y-74359420D02*
X59490000Y-74640580D01*
X60510000Y-74359420D02*
X60510000Y-74640580D01*
%TO.C,Y1*%
X56100000Y-74500000D02*
X56100000Y-76350000D01*
X57550000Y-74500000D02*
X56100000Y-74500000D01*
%TO.C,BOOT*%
X56130000Y-64670000D02*
X56130000Y-67330000D01*
X61270000Y-64670000D02*
X56130000Y-64670000D01*
X61270000Y-64670000D02*
X61270000Y-67330000D01*
X61270000Y-67330000D02*
X56130000Y-67330000D01*
X62540000Y-64670000D02*
X63870000Y-64670000D01*
X63870000Y-64670000D02*
X63870000Y-66000000D01*
%TO.C,J4*%
X91670000Y-89430000D02*
X91670000Y-76670000D01*
X94330000Y-76670000D02*
X91670000Y-76670000D01*
X94330000Y-89430000D02*
X91670000Y-89430000D01*
X94330000Y-89430000D02*
X94330000Y-76670000D01*
X94330000Y-90700000D02*
X94330000Y-92030000D01*
X94330000Y-92030000D02*
X93000000Y-92030000D01*
%TO.C,D2*%
X87515000Y-68765000D02*
X87515000Y-70235000D01*
X87515000Y-70235000D02*
X89800000Y-70235000D01*
X89800000Y-68765000D02*
X87515000Y-68765000D01*
%TO.C,SW2*%
X56670000Y-81199000D02*
X56670000Y-86720000D01*
X57380000Y-81199000D02*
X56670000Y-81199000D01*
X57380000Y-86720000D02*
X56670000Y-86720000D01*
X58680000Y-80620000D02*
X58680000Y-81199000D01*
X59330000Y-81199000D02*
X58680000Y-81199000D01*
X59330000Y-81199000D02*
X59330000Y-86720000D01*
X59330000Y-86720000D02*
X58620000Y-86720000D01*
%TO.C,R9*%
X84262742Y-59477500D02*
X84737258Y-59477500D01*
X84262742Y-60522500D02*
X84737258Y-60522500D01*
%TO.C,R2*%
X73087742Y-86477500D02*
X73562258Y-86477500D01*
X73087742Y-87522500D02*
X73562258Y-87522500D01*
%TO.C,C13*%
X70989420Y-97210000D02*
X71270580Y-97210000D01*
X70989420Y-98230000D02*
X71270580Y-98230000D01*
%TO.C,J5*%
X58550000Y-57670000D02*
X58550000Y-60330000D01*
X71310000Y-57670000D02*
X58550000Y-57670000D01*
X71310000Y-57670000D02*
X71310000Y-60330000D01*
X71310000Y-60330000D02*
X58550000Y-60330000D01*
X72580000Y-57670000D02*
X73910000Y-57670000D01*
X73910000Y-57670000D02*
X73910000Y-59000000D01*
%TO.C,R3*%
X84477500Y-88737258D02*
X84477500Y-88262742D01*
X85522500Y-88737258D02*
X85522500Y-88262742D01*
%TO.C,J3*%
X51170000Y-69670000D02*
X52500000Y-69670000D01*
X51170000Y-71000000D02*
X51170000Y-69670000D01*
X51170000Y-72270000D02*
X51170000Y-85030000D01*
X51170000Y-72270000D02*
X53830000Y-72270000D01*
X51170000Y-85030000D02*
X53830000Y-85030000D01*
X53830000Y-72270000D02*
X53830000Y-85030000D01*
%TO.C,C11*%
X59490000Y-77859420D02*
X59490000Y-78140580D01*
X60510000Y-77859420D02*
X60510000Y-78140580D01*
%TO.C,D1*%
X69265000Y-86515000D02*
X69265000Y-88800000D01*
X70735000Y-86515000D02*
X69265000Y-86515000D01*
X70735000Y-88800000D02*
X70735000Y-86515000D01*
%TO.C,C1*%
X65490000Y-72640580D02*
X65490000Y-72359420D01*
X66510000Y-72640580D02*
X66510000Y-72359420D01*
%TD*%
M02*
