M48
; DRILL file {KiCad 8.0.4} date 2024-11-07T17:54:21+0100
; FORMAT={-:-/ absolute / metric / decimal}
; #@! TF.CreationDate,2024-11-07T17:54:21+01:00
; #@! TF.GenerationSoftware,Kicad,Pcbnew,8.0.4
; #@! TF.FileFunction,MixedPlating,1,2
FMAT,2
METRIC
; #@! TA.AperFunction,Plated,PTH,ViaDrill
T1C0.300
; #@! TA.AperFunction,Plated,PTH,ComponentDrill
T2C0.600
; #@! TA.AperFunction,Plated,PTH,ComponentDrill
T3C1.000
; #@! TA.AperFunction,NonPlated,NPTH,ComponentDrill
T4C2.200
%
G90
G05
T1
X55.01Y-76.05
X61.5Y-75.5
X62.0Y-78.0
X62.5Y-82.0
X64.0Y-85.5
X64.5Y-71.0
X65.0Y-67.0
X66.2Y-64.7
X68.0Y-88.5
X69.0Y-65.5
X69.5Y-62.0
X72.0Y-82.0
X72.5Y-61.0
X73.5Y-98.0
X75.5Y-84.0
X76.0Y-61.5
X76.0Y-69.0
X76.0Y-95.5
X77.0Y-69.0
X77.0Y-84.0
X77.0Y-95.5
X79.0Y-87.5
X80.5Y-60.5
X80.5Y-71.5
X81.0Y-95.0
X84.0Y-97.0
X85.0Y-62.0
X86.0Y-75.5
X86.77Y-95.23
X87.0Y-63.5
X87.0Y-67.5
X87.0Y-71.5
T3
X52.5Y-71.0
X52.5Y-73.54
X52.5Y-76.08
X52.5Y-78.62
X52.5Y-81.16
X52.5Y-83.7
X57.46Y-66.0
X59.88Y-59.0
X60.0Y-66.0
X62.42Y-59.0
X62.54Y-66.0
X64.96Y-59.0
X67.5Y-59.0
X70.04Y-59.0
X72.58Y-59.0
X77.5Y-64.5
X77.5Y-67.04
X80.04Y-64.5
X80.04Y-67.04
X82.58Y-64.5
X82.58Y-67.04
X93.0Y-61.38
X93.0Y-63.92
X93.0Y-66.46
X93.0Y-69.0
X93.0Y-71.54
X93.0Y-74.08
X93.0Y-78.0
X93.0Y-80.54
X93.0Y-83.08
X93.0Y-85.62
X93.0Y-88.16
X93.0Y-90.7
T4
X53.0Y-56.5
X53.0Y-97.0
X94.0Y-56.5
X94.0Y-97.0
T2
G00X79.7Y-93.28
M15
G01X79.7Y-93.88
M16
G05
G00X79.7Y-97.08
M15
G01X79.7Y-97.68
M16
G05
G00X88.34Y-93.28
M15
G01X88.34Y-93.88
M16
G05
G00X88.34Y-97.08
M15
G01X88.34Y-97.68
M16
G05
M30
