%TF.GenerationSoftware,KiCad,Pcbnew,8.0.4*%
%TF.CreationDate,2024-11-07T17:56:33+01:00*%
%TF.ProjectId,stm32microcontroller,73746d33-326d-4696-9372-6f636f6e7472,rev?*%
%TF.SameCoordinates,Original*%
%TF.FileFunction,Paste,Top*%
%TF.FilePolarity,Positive*%
%FSLAX46Y46*%
G04 Gerber Fmt 4.6, Leading zero omitted, Abs format (unit mm)*
G04 Created by KiCad (PCBNEW 8.0.4) date 2024-11-07 17:56:33*
%MOMM*%
%LPD*%
G01*
G04 APERTURE LIST*
G04 Aperture macros list*
%AMRoundRect*
0 Rectangle with rounded corners*
0 $1 Rounding radius*
0 $2 $3 $4 $5 $6 $7 $8 $9 X,Y pos of 4 corners*
0 Add a 4 corners polygon primitive as box body*
4,1,4,$2,$3,$4,$5,$6,$7,$8,$9,$2,$3,0*
0 Add four circle primitives for the rounded corners*
1,1,$1+$1,$2,$3*
1,1,$1+$1,$4,$5*
1,1,$1+$1,$6,$7*
1,1,$1+$1,$8,$9*
0 Add four rect primitives between the rounded corners*
20,1,$1+$1,$2,$3,$4,$5,0*
20,1,$1+$1,$4,$5,$6,$7,0*
20,1,$1+$1,$6,$7,$8,$9,0*
20,1,$1+$1,$8,$9,$2,$3,0*%
G04 Aperture macros list end*
%ADD10RoundRect,0.200000X0.200000X0.275000X-0.200000X0.275000X-0.200000X-0.275000X0.200000X-0.275000X0*%
%ADD11RoundRect,0.218750X-0.218750X-0.256250X0.218750X-0.256250X0.218750X0.256250X-0.218750X0.256250X0*%
%ADD12RoundRect,0.250000X-0.450000X0.262500X-0.450000X-0.262500X0.450000X-0.262500X0.450000X0.262500X0*%
%ADD13RoundRect,0.225000X0.225000X0.250000X-0.225000X0.250000X-0.225000X-0.250000X0.225000X-0.250000X0*%
%ADD14RoundRect,0.225000X-0.225000X-0.250000X0.225000X-0.250000X0.225000X0.250000X-0.225000X0.250000X0*%
%ADD15RoundRect,0.175000X-0.175000X-0.425000X0.175000X-0.425000X0.175000X0.425000X-0.175000X0.425000X0*%
%ADD16RoundRect,0.190000X0.190000X0.410000X-0.190000X0.410000X-0.190000X-0.410000X0.190000X-0.410000X0*%
%ADD17RoundRect,0.200000X0.200000X0.400000X-0.200000X0.400000X-0.200000X-0.400000X0.200000X-0.400000X0*%
%ADD18RoundRect,0.175000X0.175000X0.425000X-0.175000X0.425000X-0.175000X-0.425000X0.175000X-0.425000X0*%
%ADD19RoundRect,0.190000X-0.190000X-0.410000X0.190000X-0.410000X0.190000X0.410000X-0.190000X0.410000X0*%
%ADD20RoundRect,0.200000X-0.200000X-0.400000X0.200000X-0.400000X0.200000X0.400000X-0.200000X0.400000X0*%
%ADD21O,1.100000X1.700000*%
%ADD22RoundRect,0.375000X0.625000X0.375000X-0.625000X0.375000X-0.625000X-0.375000X0.625000X-0.375000X0*%
%ADD23RoundRect,0.500000X0.500000X1.400000X-0.500000X1.400000X-0.500000X-1.400000X0.500000X-1.400000X0*%
%ADD24RoundRect,0.225000X-0.250000X0.225000X-0.250000X-0.225000X0.250000X-0.225000X0.250000X0.225000X0*%
%ADD25RoundRect,0.200000X-0.275000X0.200000X-0.275000X-0.200000X0.275000X-0.200000X0.275000X0.200000X0*%
%ADD26RoundRect,0.075000X-0.662500X-0.075000X0.662500X-0.075000X0.662500X0.075000X-0.662500X0.075000X0*%
%ADD27RoundRect,0.075000X-0.075000X-0.662500X0.075000X-0.662500X0.075000X0.662500X-0.075000X0.662500X0*%
%ADD28RoundRect,0.225000X0.250000X-0.225000X0.250000X0.225000X-0.250000X0.225000X-0.250000X-0.225000X0*%
%ADD29RoundRect,0.200000X-0.200000X-0.275000X0.200000X-0.275000X0.200000X0.275000X-0.200000X0.275000X0*%
%ADD30RoundRect,0.200000X0.275000X-0.200000X0.275000X0.200000X-0.275000X0.200000X-0.275000X-0.200000X0*%
%ADD31R,0.500000X0.600000*%
%ADD32R,0.760000X1.600000*%
%ADD33RoundRect,0.218750X-0.256250X0.218750X-0.256250X-0.218750X0.256250X-0.218750X0.256250X0.218750X0*%
G04 APERTURE END LIST*
D10*
%TO.C,R5*%
X89787500Y-75500000D03*
X88137500Y-75500000D03*
%TD*%
%TO.C,R6*%
X89825000Y-71500000D03*
X88175000Y-71500000D03*
%TD*%
D11*
%TO.C,D7*%
X88212500Y-61500000D03*
X89787500Y-61500000D03*
%TD*%
D12*
%TO.C,FB1*%
X67000000Y-80587500D03*
X67000000Y-82412500D03*
%TD*%
D13*
%TO.C,C7*%
X64775000Y-80587500D03*
X63225000Y-80587500D03*
%TD*%
D14*
%TO.C,C5*%
X68725000Y-67000000D03*
X70275000Y-67000000D03*
%TD*%
D11*
%TO.C,D4*%
X83712500Y-58500000D03*
X85287500Y-58500000D03*
%TD*%
D15*
%TO.C,J1*%
X83520000Y-93500000D03*
D16*
X85540000Y-93500000D03*
D17*
X86770000Y-93500000D03*
D18*
X84520000Y-93500000D03*
D19*
X82500000Y-93500000D03*
D20*
X81270000Y-93500000D03*
D21*
X79700000Y-93580000D03*
X79700000Y-97380000D03*
X88340000Y-93580000D03*
X88340000Y-97380000D03*
%TD*%
D13*
%TO.C,C3*%
X75775000Y-82500000D03*
X74225000Y-82500000D03*
%TD*%
D11*
%TO.C,D3*%
X88175000Y-65500000D03*
X89750000Y-65500000D03*
%TD*%
D10*
%TO.C,R8*%
X89862500Y-63500000D03*
X88212500Y-63500000D03*
%TD*%
D22*
%TO.C,U2*%
X73780000Y-95520000D03*
X73780000Y-93220000D03*
D23*
X67480000Y-93220000D03*
D22*
X73780000Y-90920000D03*
%TD*%
D24*
%TO.C,C4*%
X79000000Y-71225000D03*
X79000000Y-72775000D03*
%TD*%
D25*
%TO.C,R11*%
X71000000Y-61675000D03*
X71000000Y-63325000D03*
%TD*%
D26*
%TO.C,U1*%
X68337500Y-73250000D03*
X68337500Y-73750000D03*
X68337500Y-74250000D03*
X68337500Y-74750000D03*
X68337500Y-75250000D03*
X68337500Y-75750000D03*
X68337500Y-76250000D03*
X68337500Y-76750000D03*
X68337500Y-77250000D03*
X68337500Y-77750000D03*
X68337500Y-78250000D03*
X68337500Y-78750000D03*
D27*
X69750000Y-80162500D03*
X70250000Y-80162500D03*
X70750000Y-80162500D03*
X71250000Y-80162500D03*
X71750000Y-80162500D03*
X72250000Y-80162500D03*
X72750000Y-80162500D03*
X73250000Y-80162500D03*
X73750000Y-80162500D03*
X74250000Y-80162500D03*
X74750000Y-80162500D03*
X75250000Y-80162500D03*
D26*
X76662500Y-78750000D03*
X76662500Y-78250000D03*
X76662500Y-77750000D03*
X76662500Y-77250000D03*
X76662500Y-76750000D03*
X76662500Y-76250000D03*
X76662500Y-75750000D03*
X76662500Y-75250000D03*
X76662500Y-74750000D03*
X76662500Y-74250000D03*
X76662500Y-73750000D03*
X76662500Y-73250000D03*
D27*
X75250000Y-71837500D03*
X74750000Y-71837500D03*
X74250000Y-71837500D03*
X73750000Y-71837500D03*
X73250000Y-71837500D03*
X72750000Y-71837500D03*
X72250000Y-71837500D03*
X71750000Y-71837500D03*
X71250000Y-71837500D03*
X70750000Y-71837500D03*
X70250000Y-71837500D03*
X69750000Y-71837500D03*
%TD*%
D10*
%TO.C,R7*%
X89825000Y-67500000D03*
X88175000Y-67500000D03*
%TD*%
D28*
%TO.C,C6*%
X66000000Y-79050000D03*
X66000000Y-77500000D03*
%TD*%
D29*
%TO.C,R10*%
X77175000Y-60500000D03*
X78825000Y-60500000D03*
%TD*%
D14*
%TO.C,C2*%
X69000000Y-69000000D03*
X70550000Y-69000000D03*
%TD*%
D13*
%TO.C,C8*%
X64775000Y-83587500D03*
X63225000Y-83587500D03*
%TD*%
D25*
%TO.C,R12*%
X73500000Y-62500000D03*
X73500000Y-64150000D03*
%TD*%
D11*
%TO.C,D6*%
X77212500Y-58500000D03*
X78787500Y-58500000D03*
%TD*%
%TO.C,D5*%
X88212500Y-73500000D03*
X89787500Y-73500000D03*
%TD*%
D24*
%TO.C,C12*%
X76130000Y-92445000D03*
X76130000Y-93995000D03*
%TD*%
%TO.C,C9*%
X61000000Y-80645000D03*
X61000000Y-82195000D03*
%TD*%
D30*
%TO.C,R4*%
X83000000Y-89325000D03*
X83000000Y-87675000D03*
%TD*%
D29*
%TO.C,R1*%
X60810000Y-69000000D03*
X62460000Y-69000000D03*
%TD*%
D24*
%TO.C,C10*%
X60000000Y-73725000D03*
X60000000Y-75275000D03*
%TD*%
D31*
%TO.C,Y1*%
X56500000Y-74950000D03*
X56500000Y-76050000D03*
X57300000Y-76050000D03*
X57300000Y-74950000D03*
%TD*%
D11*
%TO.C,D2*%
X88212500Y-69500000D03*
X89787500Y-69500000D03*
%TD*%
D32*
%TO.C,SW2*%
X58000000Y-81420000D03*
X58000000Y-86500000D03*
%TD*%
D29*
%TO.C,R9*%
X83675000Y-60000000D03*
X85325000Y-60000000D03*
%TD*%
%TO.C,R2*%
X72500000Y-87000000D03*
X74150000Y-87000000D03*
%TD*%
D14*
%TO.C,C13*%
X70355000Y-97720000D03*
X71905000Y-97720000D03*
%TD*%
D30*
%TO.C,R3*%
X85000000Y-89325000D03*
X85000000Y-87675000D03*
%TD*%
D24*
%TO.C,C11*%
X60000000Y-77225000D03*
X60000000Y-78775000D03*
%TD*%
D33*
%TO.C,D1*%
X70000000Y-87212500D03*
X70000000Y-88787500D03*
%TD*%
D28*
%TO.C,C1*%
X66000000Y-73275000D03*
X66000000Y-71725000D03*
%TD*%
M02*
